<!-- Generator: Adobe Illustrator 19.1.0, SVG Export Plug-In . SVG Version: 6.00 Build 0)  -->
<svg xmlns:rdf="http://www.w3.org/1999/02/22-rdf-syntax-ns#" xmlns="http://www.w3.org/2000/svg" xml:space="preserve" viewBox="0 0 450 32" height="100%" width="100%" version="1.1" y="0px" x="0px" xmlns:cc="http://creativecommons.org/ns#" xmlns:dc="http://purl.org/dc/elements/1.1/"><metadata><rdf:RDF><cc:Work rdf:about=""><dc:format>image/svg+xml</dc:format><dc:type rdf:resource="http://purl.org/dc/dcmitype/StillImage"/><dc:title/></cc:Work></rdf:RDF></metadata><defs>
	</defs>
<style type="text/css">
	.st0{fill:#FFFFFF;}
	.st1{fill:none;}
	.st2{fill:#A4DBDD;}
	.st3{fill:#3FB48B;}
	.st4{fill:#78CAB8;}
	.st5{fill:#1F3C1F;}
</style>
<path style="fill:#a4dbdd;" class="st5" d="m16.040405,7.981115v1.08408c0,3.035425-0.975672,4.878361-2.927017,5.854034,2.493384,0.975672,3.469057,3.143833,3.469057,6.287665v2.384977c0,4.444729-2.384977,6.938114-6.9381139,6.938114h-7.2633384v-29.16176h6.9381143c4.769953-0.108407,6.721298,2.059752,6.721298,6.61289zm-8.9978665-2.601793v7.69697h1.7345285c1.734528,0,2.7102-0.758856,2.7102-3.035425v-1.62612c0-2.059752-0.758856-3.035425-2.276568-3.035425h-2.1681605zm0,11.924883v8.997866h2.6017926c1.5177119,0,2.3849769-0.758855,2.3849769-2.927016v-2.493384c0-2.710202-0.867265-3.577466-2.9270169-3.577466h-2.0597526z"/><path style="fill:#a4dbdd;" class="st5" d="m42.491963,30.421577h-4.661545l-0.758855-5.311993h-5.637218l-0.758856,5.311993h-4.227914l4.661546-29.161759h6.721297l4.661545,29.161759zm-10.515578-9.32309h4.444729l-2.16816-14.743492-2.276569,14.743492z"/><path style="fill:#a4dbdd;" class="st5" d="M49.972117,1.259818h14.093044v4.119504h-4.769953v24.933847h-4.553137v-24.933847h-4.769954v-4.119504z"/><path style="fill:#a4dbdd;" class="st5" d="m93.877369,13.509924h6.287661v4.119506h-6.287661v8.564234h7.913791v4.119505h-12.466928v-29.16176h12.466928v4.119506h-7.913791v8.239009z"/><path style="fill:#a4dbdd;" class="st5" d="m126.18297,19.580774v3.90269c0,4.661545-2.27657,7.371745-6.8297,7.371745-4.44474,0-6.82972-2.7102-6.82972-7.371745v-15.177124c0-4.661547,2.27658-7.371747,6.82972-7.371747,4.44472,0,6.8297,2.7102,6.8297,7.371747v2.818607h-4.33632v-3.143832c0-2.059752-0.97567-2.927017-2.38498-2.927017s-2.38498,0.758856-2.38498,2.927017v15.719164c0,2.059753,0.97567,2.818609,2.38498,2.818609s2.38498-0.758856,2.38498-2.818609v-4.119505h4.33632z"/><path style="fill:#a4dbdd;" class="st5" d="m136.91537,8.197931c0-4.661545,2.49338-7.371745,6.9381-7.371745,4.44474,0,6.93812,2.7102,6.93812,7.371745v15.177124c0,4.661545-2.49338,7.371745-6.93812,7.371745-4.44472,0-6.9381-2.7102-6.9381-7.371745v-15.177124zm4.55313,15.502348c0,2.059753,0.97567,2.927017,2.38497,2.927017,1.40931,0,2.38498-0.758857,2.38498-2.927017v-15.719164c0-2.059752-0.97567-2.927017-2.38498-2.927017-1.4093,0-2.38497,0.758856-2.38497,2.927017v15.719164z"/><path style="fill:#a4dbdd;" class="st5" d="m161.84921,13.72674h8.34741v4.119506h-8.34741v-4.119506z"/><path style="fill:#a4dbdd;" class="st5" d="m181.68788,1.259818h4.66154v29.161759h-4.55313l-0.10841-29.161759z"/><path style="fill:#a4dbdd;" class="st5" d="m201.96018,9.282011v21.139566h-4.1195v-29.161759h5.74562l4.66155,17.453692v-17.453692h4.0111v29.161759h-4.66156l-5.63721-21.139566z"/><path style="fill:#a4dbdd;" class="st5" d="m222.66612,1.259818h14.09304v4.119504h-4.76995v24.933847h-4.55314v-24.933847h-4.76995v-4.119504z"/><path style="fill:#a4dbdd;" class="st5" d="m251.71946,13.509924h6.28767v4.119506h-6.28767v8.564234h7.91379v4.119505h-12.46693v-29.16176h12.46693v4.119506h-7.91379v8.239009z"/><path style="fill:#a4dbdd;" class="st5" d="m280.44759,30.421577c-0.21682-0.758856-0.43362-1.192488-0.43362-3.577465v-4.553137c0-2.710201-0.97568-3.685874-3.03543-3.685874h-1.51771v11.816476h-4.55314v-29.161759h6.93812c4.76994,0,6.72128,2.168159,6.72128,6.721297v2.276568c0,3.035425-0.97567,4.98677-3.03541,5.962442,2.27656,0.975672,3.03541,3.143833,3.03541,6.179258v4.444729c0,1.409304,0,2.493384,0.54205,3.577465h-4.66155zm-4.98676-25.042255v8.997867h1.73452c1.73453,0,2.7102-0.758856,2.7102-3.035425v-2.927017c0-2.059752-0.75885-3.035425-2.27656-3.035425h-2.16816z"/><path style="fill:#a4dbdd;" class="st5" d="m310.69344,30.421577h-4.66156l-0.75885-5.311993h-5.63721l-0.75886,5.311993h-4.22792l4.66156-29.161759h6.72128l4.66156,29.161759zm-10.40717-9.32309h4.44472l-2.16816-14.743492-2.27656,14.743492z"/><path style="fill:#a4dbdd;" class="st5" d="m334.43479,19.580774v3.90269c0,4.661545-2.27656,7.371745-6.8297,7.371745s-6.8297-2.7102-6.8297-7.371745v-15.177124c0-4.661547,2.27656-7.371747,6.8297-7.371747s6.8297,2.7102,6.8297,7.371747v2.818607h-4.33632v-3.143832c0-2.059752-0.97567-2.927017-2.38498-2.927017-1.4093,0-2.38498,0.758856-2.38498,2.927017v15.719164c0,2.059753,0.97568,2.818609,2.38498,2.818609,1.40931,0,2.38498-0.758856,2.38498-2.818609v-4.119505h4.33632z"/><path style="fill:#a4dbdd;" class="st5" d="m344.19152,1.259818h14.09304v4.119504h-4.76996v24.933847h-4.55314v-24.933847h-4.76994v-4.119504z"/><path style="fill:#a4dbdd;" class="st5" d="m368.69173,1.259818h4.55314v29.161759h-4.55314v-29.161759z"/><path style="fill:#a4dbdd;" class="st5" d="m384.5193,8.197931c0-4.661545,2.49339-7.371745,6.93811-7.371745,4.44474,0,6.93812,2.7102,6.93812,7.371745v15.177124c0,4.661545-2.49338,7.371745-6.93812,7.371745-4.44472,0-6.93811-2.7102-6.93811-7.371745v-15.177124zm4.55314,15.502348c0,2.059753,0.97568,2.927017,2.38497,2.927017,1.40931,0,2.38498-0.758857,2.38498-2.927017v-15.719164c0-2.059752-0.97567-2.927017-2.38498-2.927017-1.40929,0-2.38497,0.758856-2.38497,2.927017v15.719164z"/><path style="fill:#a4dbdd;" class="st5" d="m413.78947,9.282011v21.139566h-4.1195v-29.161759h5.74562l4.66154,17.453692v-17.453692h4.01111v29.161759h-4.76996l-5.52881-21.139566z"/><path style="fill:#a4dbdd;" class="st5" d="m441.97556,0.934593c4.44472,0,6.7213,2.7102,6.7213,7.371747v0.975671h-4.33632v-1.192488c0-2.059753-0.86727-2.927017-2.27658-2.927017-1.4093,0-2.27656,0.758857-2.27656,2.927017,0,5.962442,8.99786,7.15493,8.99786,15.393941,0,4.661545-2.27656,7.371745-6.8297,7.371745s-6.8297-2.7102-6.8297-7.371745v-1.734529h4.33631v2.059752c0,2.059752,0.97568,2.818609,2.38498,2.818609s2.38497-0.758857,2.38497-2.818609c0-5.962441-8.99786-7.15493-8.99786-15.39394,0-4.878361,2.27656-7.480154,6.7213-7.480154z"/>
</svg>
