<?xml version="1.0" encoding="iso-8859-1"?>
<!-- Generator: Adobe Illustrator 16.0.0, SVG Export Plug-In . SVG Version: 6.00 Build 0)  -->
<!DOCTYPE svg PUBLIC "-//W3C//DTD SVG 1.1//EN" "http://www.w3.org/Graphics/SVG/1.1/DTD/svg11.dtd">
<svg version="1.1" id="Capa_1" xmlns="http://www.w3.org/2000/svg" xmlns:xlink="http://www.w3.org/1999/xlink" x="0px" y="0px"
	 width="612px" height="612px" viewBox="0 0 612 612" style="enable-background:new 0 0 612 612;" xml:space="preserve">
<g>
	<g>
		<path d="M502.301,104.03c-31.64,0-61.048,13.351-81.676,36.436C378.659,101.703,309.244,101.218,306,101.218
			c-3.416,0-75.667,0.491-115.152,38.662c-20.598-22.729-49.775-35.856-81.155-35.856C49.207,104.03,0,153.237,0,213.729
			c0,35.761,17.223,68.734,45.785,89.178c-7.963,14.435-12.96,27.591-15.187,39.941c-2.913,16.14-0.917,30.651,5.938,43.132
			c11.439,20.817,35.27,34.743,72.866,42.57c4.719,0.982,9.651,1.871,14.819,2.664c8.692,24.832,43.535,79.568,181.76,79.568
			c138.207,0,173.057-54.719,181.754-79.557c5.187-0.799,10.136-1.687,14.867-2.67c37.59-7.821,61.427-21.747,72.865-42.563
			c6.856-12.481,8.852-26.993,5.939-43.133c-2.232-12.351-7.224-25.513-15.193-39.947C594.776,282.474,612,249.502,612,213.735
			C612,153.237,562.793,104.03,502.301,104.03z M442.928,446.448c-33.138,29.331-92.759,35.482-136.945,35.482
			c-77.881,0-116.348-18.342-134.897-33.736c-5.53-4.582-9.609-9.135-12.623-13.298c15.885,1.107,33.671,1.641,53.831,1.641
			c18.846,0,37.703-0.456,54.334-0.864c14.304-0.35,27.815-0.676,39.373-0.676c11.558,0,25.074,0.326,39.385,0.676
			c16.631,0.402,35.488,0.864,54.328,0.864c0.006,0,0.012,0,0.018,0c20.137,0,37.898-0.533,53.761-1.635
			C450.862,438.538,447.422,442.47,442.928,446.448z M539.874,285.334l-13.854,7.288l8.396,13.215
			c18.567,29.218,23.872,51.51,15.772,66.258c-9.401,17.117-37.069,26.004-66.856,30.616l-8.91,1.113
			c-20.243,2.528-44.689,3.754-74.726,3.754c-18.49,0-36.359-0.433-53.636-0.853c-14.488-0.35-28.171-0.682-40.077-0.682
			c-11.907,0-25.589,0.332-40.083,0.682c-17.276,0.42-35.139,0.853-53.629,0.853c-30.036,0-54.482-1.226-74.726-3.754l-8.608-1.072
			c-29.888-4.605-57.686-13.493-67.117-30.663c-8.1-14.748-2.801-37.04,15.767-66.252l8.396-13.215l-13.854-7.288
			c-26.696-14.044-43.28-41.48-43.28-71.605c0-44.583,36.271-80.854,80.853-80.854c27.97,0,53.571,14.157,68.491,37.875
			l12.197,19.39l12.208-19.378c12.748-20.231,39.426-30.208,59.557-35.015c23.315-5.565,43.659-5.672,43.843-5.678
			c0.184,0,18.745,0.065,41.368,5.524c20.065,4.843,47.212,15.021,62.611,36.01l12.546,17.093l11.291-17.946
			c14.92-23.712,40.521-37.875,68.49-37.875c44.583,0,80.854,36.271,80.854,80.853C583.154,243.854,566.57,271.296,539.874,285.334z
			"/>
		<path d="M93.636,168.506c-28.29,0-51.309,23.02-51.309,51.309s23.02,51.309,51.309,51.309c28.289,0,51.309-23.02,51.309-51.309
			S121.931,168.506,93.636,168.506z M93.636,242.278c-12.386,0-22.463-10.077-22.463-22.463c0-12.386,10.077-22.463,22.463-22.463
			c12.386,0,22.463,10.077,22.463,22.463C116.099,232.201,106.022,242.278,93.636,242.278z"/>
		<path d="M517.357,168.506c-28.295,0-51.309,23.02-51.309,51.309s23.02,51.309,51.309,51.309s51.309-23.02,51.309-51.309
			S545.646,168.506,517.357,168.506z M517.357,242.278c-12.386,0-22.463-10.077-22.463-22.463c0-12.386,10.077-22.463,22.463-22.463
			s22.463,10.077,22.463,22.463C539.82,232.201,529.743,242.278,517.357,242.278z"/>
		<circle cx="254.934" cy="364.854" r="14.417"/>
		<circle cx="355.894" cy="364.854" r="14.417"/>
	</g>
</g>
<g>
</g>
<g>
</g>
<g>
</g>
<g>
</g>
<g>
</g>
<g>
</g>
<g>
</g>
<g>
</g>
<g>
</g>
<g>
</g>
<g>
</g>
<g>
</g>
<g>
</g>
<g>
</g>
<g>
</g>
</svg>
