<?xml version="1.0" encoding="iso-8859-1"?>
<!-- Generator: Adobe Illustrator 19.0.0, SVG Export Plug-In . SVG Version: 6.00 Build 0)  -->
<svg version="1.1" id="Layer_1" xmlns="http://www.w3.org/2000/svg" xmlns:xlink="http://www.w3.org/1999/xlink" x="0px" y="0px"
	 viewBox="0 0 512 512" style="enable-background:new 0 0 512 512;" xml:space="preserve">
<g>
	<g>
		<path d="M439.47,54.051c-8.585-8.813-23.271-5.26-27.157,6.075c-13.976,40.132-43.439,73.572-80.915,92.877V65.448
			c0-9.023-7.315-16.339-16.339-16.339c-9.023,0-16.339,7.315-16.339,16.339c0,23.556-19.165,42.721-42.721,42.721
			c-23.556,0-42.721-19.165-42.721-42.721c0-9.023-7.315-16.339-16.339-16.339c-9.023,0-16.339,7.315-16.339,16.339v87.554
			c-37.487-19.31-66.957-52.764-80.928-92.911c-4.019-11.59-18.768-14.641-27.144-6.039
			C2.222,126.284-19.165,233.444,18.042,327.054c2.981,7.503,10.993,11.701,18.858,9.885
			c60.138-13.883,184.067,1.012,200.829,110.339c3.193,20.825,33.352,20.809,36.54,0
			c16.663-108.681,140.047-124.367,200.829-110.339c7.864,1.815,15.877-2.383,18.858-9.884
			C531.165,233.445,509.778,126.284,439.47,54.051z M43.837,302.39c-21.932-66.59-11.03-139.436,28.278-196.506
			c10.666,70.95,35.553,143.145,75.002,203.448C112.78,299.458,75.601,297.578,43.837,302.39z M256.026,396.078
			c-28.19-59.225-103.601-81.345-143.7-253.947c22.15,23.338,49.737,40.863,79.308,51.016c10.596,3.64,21.645-4.249,21.645-15.453
			v-50.15c25.331,17.479,59.378,17.99,85.442,0v50.15c0,11.202,11.049,19.094,21.645,15.453
			c29.371-10.085,56.963-27.51,79.194-50.897C359.379,314.358,284.405,336.736,256.026,396.078z M468.164,302.39
			c-30.454-4.609-67.756-3.258-103.321,7.007c39.392-60.191,64.348-132.369,75.043-203.512
			C479.193,162.955,490.096,235.803,468.164,302.39z"/>
	</g>
</g>
<g>
</g>
<g>
</g>
<g>
</g>
<g>
</g>
<g>
</g>
<g>
</g>
<g>
</g>
<g>
</g>
<g>
</g>
<g>
</g>
<g>
</g>
<g>
</g>
<g>
</g>
<g>
</g>
<g>
</g>
</svg>
