<?xml version="1.0" encoding="iso-8859-1"?>
<!-- Generator: Adobe Illustrator 19.0.0, SVG Export Plug-In . SVG Version: 6.00 Build 0)  -->
<svg version="1.1" id="Layer_1" xmlns="http://www.w3.org/2000/svg" xmlns:xlink="http://www.w3.org/1999/xlink" x="0px" y="0px"
	 viewBox="0 0 512 512" style="enable-background:new 0 0 512 512;" xml:space="preserve">
<g>
	<g>
		<g>
			<circle cx="414.299" cy="76.054" r="11.559"/>
			<path d="M506.727,99.133c-4.754-13.784-16.685-24.283-23.373-29.315c-6.49-4.883-13.241-8.574-19.454-10.762
				C451.682,24.279,418.245,0,380.658,0c-41.39,0-77.613,29.299-86.238,69.706c-0.001,0.007-0.004,0.016-0.006,0.023
				c-1.675,6.63-2.966,12.187-4.105,17.09c-2.86,12.309-4.463,19.201-7.951,24.859c-0.002,0.002-0.004,0.005-0.005,0.006
				l-1.344,1.843c-0.063,0.085-0.13,0.184-0.189,0.271c-0.489,0.722-3.762,5.205-7.253,9.96
				c-31.962,5.913-60.204,25.75-76.471,54.702c-0.074,0.131-0.144,0.264-0.211,0.398c-18.27,33.782-95.124,170.845-95.902,172.229
				c-1.556,2.774-1.569,6.154-0.038,8.94c0.041,0.074,0.092,0.139,0.134,0.21l-10.7,14.671L6.644,485.255
				c-1.893,2.494-2.389,5.779-1.317,8.722c1.072,2.942,3.565,5.138,6.621,5.83c8.734,1.977,17.085,2.965,25.052,2.965
				c24.521-0.002,45.358-9.354,62.151-27.958c16.153-17.896,25.909-41.703,32.177-61.183c21.452,11.796,44.955,19.703,79.022,22.785
				c7.183,0.65,14.31,0.973,21.376,0.973c9.26,0,18.401-0.567,27.398-1.663l22.952,57.852h-24.243c-5.088,0-9.211,4.124-9.211,9.211
				s4.123,9.211,9.211,9.211h37.778c0.011,0,0.022,0.003,0.032,0.003c0.017,0,0.033-0.003,0.052-0.003h37.141
				c0.011,0,0.022,0.003,0.032,0.003c0.017,0,0.034-0.003,0.052-0.003h55.18c5.088,0,9.211-4.124,9.211-9.211
				s-4.123-9.211-9.211-9.211h-48.979l-28.1-70.829c23.631-9.209,45.423-22.653,64.492-40.073
				c43.597-39.83,67.607-95.678,67.607-157.256c0-11.697-0.883-23.456-2.624-34.956c-0.021-0.183-0.047-0.367-0.08-0.551
				l-0.022-0.126c-0.14-0.906-0.291-1.808-0.443-2.709l-0.085-0.502c-2.277-15.762,0.51-29.77,8.282-41.644
				c2.007-2.38,3.852-4.808,5.494-7.222c0.026-0.036,0.049-0.071,0.074-0.106c0.814-1.202,1.593-2.43,2.348-3.674
				c12.659-1.994,30.413-9.041,38.735-22.579h3.224c2.978,0,5.771-1.439,7.499-3.864
				C507.247,105.058,507.697,101.948,506.727,99.133z M213.236,187.354c0.021-0.039,0.042-0.079,0.063-0.118
				c16.376-28.945,47.123-46.91,80.311-46.91c1.703,0,3.432,0.047,5.141,0.141c50.828,2.788,89.914,46.405,87.127,97.233
				c-1.492,27.191-14.84,52.214-36.624,68.653c-0.33,0.249-0.641,0.518-0.93,0.804c-31.116,27.599-89.48,41.015-178.395,41.015
				c-14.247,0-29.532-0.352-45.605-1.05C144.121,311.782,198.463,214.689,213.236,187.354z M30.633,484.115l69.024-90.956
				c5.232,3.757,10.337,7.313,15.432,10.651C97.104,461.85,70.611,487.26,30.633,484.115z M268.343,409.011
				c-1.875-4.728-7.228-7.041-11.958-5.164c-4.729,1.875-7.041,7.23-5.165,11.958l0.854,2.152
				c-13.068,1.281-26.465,1.341-40.065,0.111c-46.558-4.211-70.897-17.832-101.358-39.689l9.489-13.009
				c17.573,0.809,34.284,1.226,49.789,1.226h0.012c40.918,0,75.863-2.857,105.136-8.637c0.933,18.37,5.029,36.496,12.072,53.378
				c-5.363,1.525-10.812,2.827-16.336,3.898L268.343,409.011z M319.301,493.576h-17.407l-24.173-60.927
				c5.347-1.125,10.625-2.45,15.832-3.969L319.301,493.576z M363.086,369.074c-17.268,15.777-37.013,27.977-58.438,36.368
				c-6.964-16.255-10.812-33.864-11.303-51.661c28.852-7.587,51.212-18.576,67.442-33.057c25.863-19.719,41.704-49.58,43.481-82.016
				c0.485-8.824-0.091-17.464-1.603-25.803c7.042-1.596,14.214-2.645,21.456-3.144c0.379,5.209,0.575,10.439,0.575,15.657
				C424.696,281.758,402.816,332.777,363.086,369.074z M444.006,62.185l-16.481,36.128c-0.022,0.047-0.033,0.095-0.054,0.141
				c-0.077,0.178-0.141,0.36-0.208,0.543c-0.07,0.19-0.139,0.379-0.195,0.572c-0.053,0.182-0.092,0.366-0.133,0.55
				c-0.045,0.199-0.088,0.395-0.122,0.596c-0.027,0.183-0.045,0.367-0.064,0.551c-0.02,0.204-0.036,0.406-0.042,0.61
				c-0.005,0.184,0,0.367,0.006,0.551c0.006,0.204,0.017,0.408,0.036,0.61c0.018,0.183,0.044,0.365,0.074,0.548
				c0.031,0.203,0.07,0.403,0.115,0.603c0.041,0.179,0.088,0.357,0.14,0.534c0.059,0.2,0.124,0.397,0.195,0.592
				c0.065,0.173,0.131,0.343,0.206,0.512c0.085,0.195,0.179,0.386,0.279,0.575c0.049,0.093,0.085,0.192,0.138,0.284l11.171,19.642
				c-0.174,0.266-0.336,0.538-0.516,0.803c-0.033,0.048-0.068,0.096-0.099,0.144c-1.379,2.035-2.96,4.099-4.697,6.137
				c-0.233,0.275-0.452,0.563-0.652,0.863c-10.459,15.669-14.42,34.704-11.456,55.049c0.01,0.066,0.021,0.133,0.031,0.199
				l0.104,0.619c0.074,0.431,0.14,0.865,0.211,1.296c-8.141,0.604-16.2,1.84-24.118,3.673
				c-14.664-40.531-52.438-70.533-98.12-73.037c-0.705-0.039-1.415-0.061-2.123-0.087c0.016-0.026,0.034-0.048,0.05-0.072
				c5.33-8.378,7.302-16.865,10.57-30.925c1.114-4.792,2.374-10.22,3.992-16.628c0.042-0.151,0.081-0.307,0.113-0.442
				c0.012-0.053,0.025-0.106,0.034-0.158c6.737-32.064,35.447-55.337,68.265-55.337c28.146,0,53.344,17.207,64.156,42.369
				C444.511,61.229,444.232,61.689,444.006,62.185z M454.159,115.601l-2.421-4.255h15.444
				C462.853,113.436,458.161,114.888,454.159,115.601z M450.23,92.925l7.561-16.577c7.098,2.518,16.761,8.967,23.704,16.577H450.23z
				"/>
		</g>
	</g>
</g>
<g>
</g>
<g>
</g>
<g>
</g>
<g>
</g>
<g>
</g>
<g>
</g>
<g>
</g>
<g>
</g>
<g>
</g>
<g>
</g>
<g>
</g>
<g>
</g>
<g>
</g>
<g>
</g>
<g>
</g>
</svg>
