<?xml version='1.0' encoding='iso-8859-1'?>
<svg version="1.1" xmlns="http://www.w3.org/2000/svg" viewBox="0 0 315.895 315.895" xmlns:xlink="http://www.w3.org/1999/xlink" enable-background="new 0 0 315.895 315.895">
  <g>
    <path d="m118.196,47.647c-35.269,0-63.961,28.692-63.961,63.96s28.692,63.96 63.961,63.96 63.961-28.692 63.961-63.96-28.693-63.96-63.961-63.96zm0,112.921c-26.997,0-48.961-21.963-48.961-48.96s21.964-48.96 48.961-48.96 48.961,21.963 48.961,48.96-21.964,48.96-48.961,48.96z"/>
    <path d="m296.496,205.014c-17.229-24.419-27.142-52.553-28.665-81.358-0.026-0.513-0.057-1.026-0.09-1.538-2.044-31.795-15.903-61.805-39.023-84.501-23.116-22.691-53.377-35.999-85.21-37.473-2.061-0.096-4.149-0.144-6.205-0.144-36.625,0-71.807,15.515-96.524,42.567-25.06,27.428-37.007,63.045-33.641,100.291 5.406,59.819 52.514,109.162 112.012,117.325 2.295,0.315 4.627,0.574 6.932,0.77 24.022,2.039 44.713,12.331 58.26,28.98 13.424,16.498 33.31,25.96 54.557,25.961 1.13,0 2.278-0.027 3.412-0.081 16.969-0.804 33.158-7.904 45.586-19.992 12.435-12.096 19.971-28.085 21.219-45.023 1.216-16.526-3.147-32.358-12.62-45.784zm-2.34,44.682c-2.018,27.374-25.103,49.834-52.555,51.134-17.714,0.835-34.496-6.688-45.625-20.364-16.139-19.835-40.511-32.073-68.625-34.459-2.048-0.174-4.121-0.404-6.162-0.684-52.646-7.224-94.328-50.884-99.111-103.815-2.982-33 7.592-64.544 29.775-88.823 21.882-23.949 53.027-37.685 85.45-37.685 1.825,0 3.68,0.043 5.512,0.128 28.141,1.303 54.917,13.092 75.396,33.194 20.48,20.104 32.755,46.654 34.563,74.761 0.029,0.454 0.056,0.908 0.08,1.363 1.672,31.633 12.525,62.484 31.388,89.216 7.444,10.553 10.873,23.014 9.914,36.034z"/>
    <path d="m238.898,215.745c-16.396,0-29.736,13.34-29.736,29.736s13.34,29.736 29.736,29.736 29.735-13.339 29.735-29.736-13.339-29.736-29.735-29.736zm0,44.472c-8.126,0-14.736-6.61-14.736-14.736s6.61-14.736 14.736-14.736c8.125,0 14.735,6.611 14.735,14.736s-6.61,14.736-14.735,14.736z"/>
  </g>
</svg>
