<?xml version="1.0" encoding="iso-8859-1"?>
<!-- Generator: Adobe Illustrator 19.0.0, SVG Export Plug-In . SVG Version: 6.00 Build 0)  -->
<svg version="1.1" id="Layer_1" xmlns="http://www.w3.org/2000/svg" xmlns:xlink="http://www.w3.org/1999/xlink" x="0px" y="0px"
	 viewBox="0 0 511.999 511.999" style="enable-background:new 0 0 511.999 511.999;" xml:space="preserve">
<g>
	<g>
		<circle cx="422.792" cy="234.471" r="10.087"/>
	</g>
</g>
<g>
	<g>
		<g>
			<path d="M285.552,175.005c-20.762,2.093-38.793,5.743-53.591,10.848c-5.103,1.759-7.812,7.322-6.052,12.425
				c1.396,4.047,5.184,6.588,9.239,6.588c1.055,0,2.132-0.172,3.186-0.536c13.373-4.612,29.919-7.935,49.18-9.878
				c5.369-0.541,9.285-5.333,8.743-10.704C295.715,178.378,290.909,174.454,285.552,175.005z"/>
			<path d="M385.121,186.123c-18.705-8.215-37.012-12.615-54.41-13.08c-5.37-0.128-9.885,4.113-10.029,9.509
				s4.113,9.885,9.509,10.029c14.856,0.396,30.693,4.244,47.07,11.437c1.279,0.561,2.613,0.827,3.925,0.827
				c3.759,0,7.344-2.183,8.953-5.844C392.31,194.058,390.063,188.292,385.121,186.123z"/>
		</g>
	</g>
</g>
<g>
	<g>
		<path d="M369.471,288.634c-3.483-4.125-9.649-4.643-13.772-1.16c-24.528,20.716-46.242,32.885-59.826,33.778
			c-3.654-13.009-2.874-22.762,2.377-32.597c2.542-4.761,0.744-10.68-4.017-13.224c-4.761-2.541-10.68-0.743-13.224,4.018
			c-8.676,16.247-9.185,32.998-1.654,54.311c1.135,3.21,3.859,5.6,7.191,6.305c2.447,0.518,5.013,0.777,7.7,0.777
			c18.958,0,43.819-12.891,74.064-38.436C372.433,298.923,372.954,292.757,369.471,288.634z"/>
	</g>
</g>
<g>
	<g>
		<path d="M509.678,222.003c-1.029-1.213-24.861-29.082-62.665-54.573l-52.207-97.997c-1.836-3.446-5.544-5.47-9.437-5.144
			c-8.535,0.711-206.132,18.298-226.349,115.662c-9.003,9.212-19.398,19.183-26.649,19.183c-0.792,0-1.538-0.128-2.281-0.392
			c-16.628-5.92-31.319-24.455-46.87-44.079c-20.078-25.337-40.839-51.537-71.196-58.726c-3.662-0.866-7.501,0.447-9.863,3.38
			s-2.828,6.962-1.2,10.358c33.615,70.066,33.615,164.209,0,234.264c-1.533,3.197-1.216,6.973,0.831,9.868
			c2.046,2.895,5.501,4.458,9.024,4.076c25.686-2.757,43.727-23.655,61.171-43.864c13.087-15.159,26.617-30.834,43.492-39.804
			c6.584-3.5,11.112-4.928,15.628-4.928c3.599,0,7.778,0.902,13.933,3c5.187,2.128,18.209,20.96,23.771,29.002
			c3.438,4.972,6.407,9.266,8.732,12.118c5.777,7.077,12.17,13.849,18.987,20.118c9.853,9.086,20.685,17.249,32.194,24.261
			c16.5,10.043,34.079,17.501,52.144,22.256c10.666,40.799,35.249,64.062,36.351,65.085c1.878,1.747,4.268,2.618,6.655,2.618
			c2.459,0,4.916-0.922,6.809-2.762c33.915-32.938,78.684-83.523,96.458-103.859c49.319-43.889,81.781-104.546,83.728-108.234
			C512.732,229.356,512.262,225.048,509.678,222.003z M284.736,103.863c40.617-12.432,80.731-17.752,95.906-19.448l34.168,64.134
			c-29.542-14.742-58.766-22.199-87.203-22.199c-53.99,0-98.315,7.962-129.677,23.149
			C219.595,127.739,254.408,113.146,284.736,103.863z M324.278,423.853c-6.096-7.515-15.337-20.953-21.683-39.431
			c8.303,1.158,16.658,1.754,25.012,1.754c7.312,0,14.813-0.79,22.303-2.35c5.836-1.222,11.575-2.901,17.211-4.961
			C353.098,394.133,338.043,410.113,324.278,423.853z M345.913,364.694c-6.171,1.286-12.331,1.937-18.306,1.937
			c-30.586,0-61.265-8.832-88.718-25.541c-10.407-6.34-20.2-13.721-29.119-21.946c-6.146-5.65-11.893-11.74-17.081-18.095
			c-1.834-2.249-4.732-6.44-7.801-10.88c-13.221-19.12-23.364-32.922-33.501-36.37c-8.344-2.846-14.41-4.061-20.281-4.061
			c-7.872,0-15.289,2.159-24.802,7.215c-20.105,10.688-34.851,27.771-49.113,44.291c-10.199,11.814-19.527,22.621-29.482,29.547
			c23.611-63.975,23.866-141.578,0.77-205.857c14.406,10.297,27.06,26.263,39.424,41.865c17.342,21.884,33.722,42.553,55.634,50.353
			c2.841,1.011,5.814,1.525,8.832,1.525c0.002,0,0.005,0,0.007,0c16.335-0.002,30.219-14.327,43.646-28.177
			c6.274-6.472,12.199-12.585,17.242-15.947c28.156-18.749,74.611-28.659,134.342-28.659c33.624,0,68.883,11.874,104.789,35.289
			c28.247,18.438,49.135,39.2,57.87,48.498C475.925,254.559,416.866,349.836,345.913,364.694z"/>
	</g>
</g>
<g>
</g>
<g>
</g>
<g>
</g>
<g>
</g>
<g>
</g>
<g>
</g>
<g>
</g>
<g>
</g>
<g>
</g>
<g>
</g>
<g>
</g>
<g>
</g>
<g>
</g>
<g>
</g>
<g>
</g>
</svg>
