<?xml version="1.0" encoding="iso-8859-1"?>
<!-- Generator: Adobe Illustrator 19.0.0, SVG Export Plug-In . SVG Version: 6.00 Build 0)  -->
<svg version="1.1" id="Layer_1" xmlns="http://www.w3.org/2000/svg" xmlns:xlink="http://www.w3.org/1999/xlink" x="0px" y="0px"
	 viewBox="0 0 512.001 512.001" style="enable-background:new 0 0 512.001 512.001;" xml:space="preserve">
<g>
	<g>
		<path d="M391.363,189.286c-5.805,0-11.484,0.509-17.022,1.459c-4.668-42.943-23.369-86.013-52.921-120.79
			C284.636,26.668,237.165,2.828,187.752,2.828c-49.413,0-96.883,23.841-133.669,67.129C19.713,110.404,0,162.071,0,211.709
			c0,20.322,3.295,34.551,10.368,44.778c5.307,7.671,15.586,16.818,34.417,16.818c15.468,0,33.313-5.956,53.974-12.852
			c12.578-4.198,25.957-8.649,39.947-12.191c-14.246,72.013-23.182,164.438-23.182,184.71c0,41.166,32.401,74.657,72.228,74.657
			c39.827,0,72.228-33.491,72.228-74.657c0-20.272-8.935-112.697-23.183-184.711c13.989,3.541,27.367,7.991,39.944,12.187
			c2.841,0.948,5.633,1.879,8.384,2.782c-9.236,18.952-14.4,39.618-14.4,59.541c0,13.738,2.368,23.561,7.453,30.913
			c4.108,5.939,11.997,13.018,26.257,13.018c10.457,0,21.771-3.776,34.871-8.148c4.487-1.497,9.149-3.048,13.943-4.506
			c-7.603,42.336-12.281,91.716-12.281,103.255c0,28.603,22.608,51.872,50.394,51.872c27.789,0,50.395-23.27,50.395-51.872
			c0-11.539-4.679-60.92-12.281-103.256c4.794,1.458,9.458,3.008,13.944,4.506c13.098,4.371,24.41,8.147,34.87,8.147
			c12.589,0,33.709-5.708,33.709-43.93C512,259.76,460.409,189.286,391.363,189.286z M187.752,474.57
			c-21.599,0-39.171-18.662-39.171-41.6c0-19.972,10.045-120.703,25.145-190.857c9.441-0.815,17.664-0.894,28.051,0
			c15.101,70.154,25.146,170.885,25.146,190.857C226.923,455.909,209.351,474.57,187.752,474.57z M287.205,229.09
			c-17.12-5.712-36.837-12.289-58.289-16.462l-0.064-0.272c-35.826-5.29-45.908-5.359-82.2,0l-0.064,0.273
			c-21.454,4.174-41.172,10.752-58.294,16.467c-17.183,5.735-33.412,11.152-43.509,11.152c-5.455,0-6.481-1.483-7.231-2.566
			c-1.678-2.429-4.497-9.032-4.497-25.973c0-81.309,67.575-175.823,154.696-175.823c83.65,0,149.278,87.136,154.374,166.075
			c-15.01,8.076-28.109,19.512-38.666,32.443C298.319,232.799,292.853,230.975,287.205,229.09z M391.363,476.117
			c-9.56,0-17.337-8.441-17.337-18.815c0-11.16,5.746-68.479,14.146-109.893c2.333-0.085,4.09-0.083,6.384,0
			c8.4,41.415,14.145,98.734,14.145,109.893C408.702,467.678,400.923,476.117,391.363,476.117z M477.829,333.635
			c-5.204-0.184-14.725-3.362-23.942-6.438c-9.524-3.179-20.34-6.782-32.135-9.374l-0.1-0.428c-25.456-3.758-29.092-4.647-60.578,0
			l-0.1,0.428c-11.794,2.592-22.61,6.195-32.133,9.373c-9.218,3.076-18.741,6.254-23.944,6.44
			c-0.472-1.583-1.114-4.847-1.114-10.865c0-47.617,39.695-100.427,87.58-100.427c48.139,0,87.58,52.98,87.58,100.427
			C478.943,328.79,478.3,332.052,477.829,333.635z"/>
	</g>
</g>
<g>
</g>
<g>
</g>
<g>
</g>
<g>
</g>
<g>
</g>
<g>
</g>
<g>
</g>
<g>
</g>
<g>
</g>
<g>
</g>
<g>
</g>
<g>
</g>
<g>
</g>
<g>
</g>
<g>
</g>
</svg>
