<?xml version="1.0" encoding="iso-8859-1"?>
<!-- Generator: Adobe Illustrator 19.0.0, SVG Export Plug-In . SVG Version: 6.00 Build 0)  -->
<svg version="1.1" id="Layer_1" xmlns="http://www.w3.org/2000/svg" xmlns:xlink="http://www.w3.org/1999/xlink" x="0px" y="0px"
	 viewBox="0 0 512 512" style="enable-background:new 0 0 512 512;" xml:space="preserve">
<g>
	<g>
		<path d="M427.312,260.463c-10.085-14.118-21.828-16.916-29.934-16.798c-18.91,0.306-37.154,16.489-49.068,29.908
			c0.141-4.396,0.22-8.829,0.22-13.306c0-50.745-9.162-96.524-24.491-131.488c1.882-2.692,8.036-11.604,16.272-20.016
			c11.93-12.183,23.207-19.496,31.755-19.496c0.083,0,0.166,0,0.248,0c5.796,0,10.874,3.558,15.512,10.054
			c15.33,21.462,15.053,29.92,14.223,32.474c-1.327,4.079-8.792,6.667-16.011,9.073c-4.471,1.489-6.887,6.373-5.398,10.844
			c1.192,3.577,4.522,5.862,8.095,5.862c0.894,0,1.804-0.129,2.699-0.427c10.182-3.394,22.855-7.612,26.844-19.881
			c3.753-11.539-1.355-26.177-16.564-47.47c-10.085-14.121-21.832-16.943-29.934-16.798c-23.304,0.377-45.592,24.86-56.269,38.573
			c-16.275-29.056-37.502-47.735-61.228-51.235c0.18-6.344,1.643-16.227,8.032-24.866c7.305-9.875,19.492-16.096,36.225-18.485
			c4.664-0.667,7.906-4.99,7.24-9.654c-0.667-4.664-4.981-7.921-9.655-7.242c-21.536,3.077-37.582,11.639-47.691,25.45
			c-9.079,12.404-11.064,26.125-11.234,34.931c-33.01,5.346-61.109,40.097-77.638,91.247c-1.517,0.288-13.021,2.388-26.266,2.525
			c-17.06,0.229-29.822-3-35.958-8.95c-4.236-4.106-5.649-9.985-4.318-17.971c4.335-26.016,10.372-31.66,12.766-32.879
			c3.819-1.946,10.86,1.573,17.666,4.977c4.217,2.108,9.342,0.398,11.449-3.817c2.107-4.216,0.399-9.341-3.816-11.45
			c-9.6-4.798-21.546-10.773-33.044-4.919c-10.813,5.506-17.554,19.473-21.856,45.283c-2.852,17.117,3.477,27.416,9.289,33.043
			c11.377,11.017,30.296,13.831,46.669,13.831c8.603,0,16.499-0.777,22.229-1.55c-6.82,27.031-10.638,57.693-10.638,90.426
			c0,25.052,2.238,48.891,6.344,70.82c-3.308,0.583-13.624,2.229-25.316,2.352c-17.073,0.181-29.82-2.998-35.958-8.95
			c-4.236-4.106-5.649-9.985-4.318-17.971c4.335-26.016,10.372-31.66,12.766-32.879c3.822-1.946,10.86,1.573,17.666,4.977
			c4.217,2.108,9.342,0.398,11.449-3.817c2.107-4.216,0.399-9.342-3.816-11.45c-9.6-4.798-21.547-10.771-33.044-4.919
			c-10.813,5.506-17.554,19.473-21.856,45.283c-2.852,17.117,3.477,27.416,9.289,33.043c11.377,11.017,30.296,13.831,46.669,13.831
			c13.962,0,26.048-2.044,30.038-2.8c15.228,62.928,46.607,106.815,84.296,112.401c-0.321,4.356-1.632,10.373-5.823,16.187
			c-7.011,9.731-19.929,16.002-38.394,18.639c-4.664,0.667-7.906,4.989-7.24,9.654c0.608,4.256,4.259,7.329,8.437,7.329
			c0.401,0,0.808-0.029,1.218-0.087c23.434-3.348,40.281-12.06,50.069-25.898c6.613-9.346,8.471-19.05,8.798-25.939
			c45.8-7.367,82.151-71.358,91.292-157.186c1.053-0.629,1.999-1.471,2.726-2.558c0.069-0.102,6.984-10.792,16.885-20.904
			c11.93-12.183,23.207-19.496,31.755-19.496c0.083,0,0.166,0,0.248,0c5.796,0,10.874,3.558,15.512,10.054
			c15.33,21.462,15.053,29.92,14.223,32.474c-1.327,4.079-8.792,6.667-16.011,9.073c-4.471,1.49-6.887,6.373-5.398,10.844
			c1.192,3.577,4.522,5.862,8.095,5.862c0.894,0,1.804-0.129,2.699-0.427c10.182-3.394,22.855-7.612,26.844-19.881
			C447.63,296.392,442.521,281.757,427.312,260.463z M246.131,443.732c-46.255,0-85.332-84.016-85.332-183.464
			s39.078-183.464,85.332-183.464c46.255,0,85.332,84.016,85.332,183.464S292.386,443.732,246.131,443.732z"/>
	</g>
</g>
<g>
	<g>
		<path d="M246.131,136.536c-28.232,0-51.199,22.968-51.199,51.199s22.967,51.199,51.199,51.199s51.199-22.969,51.199-51.199
			S274.363,136.536,246.131,136.536z M246.131,221.868c-18.82,0-34.133-15.312-34.133-34.133c0-18.82,15.313-34.133,34.133-34.133
			c18.821,0,34.133,15.312,34.133,34.133C280.264,206.556,264.952,221.868,246.131,221.868z"/>
	</g>
</g>
<g>
	<g>
		<path d="M246.131,290.134c-18.82,0-34.133,15.312-34.133,34.133c0,18.821,15.313,34.133,34.133,34.133
			c18.821,0,34.133-15.312,34.133-34.133C280.264,305.446,264.952,290.134,246.131,290.134z M246.131,341.333
			c-9.41,0-17.066-7.656-17.066-17.066c0-9.41,7.656-17.066,17.066-17.066c9.41,0,17.066,7.656,17.066,17.066
			C263.198,333.677,255.542,341.333,246.131,341.333z"/>
	</g>
</g>
<g>
</g>
<g>
</g>
<g>
</g>
<g>
</g>
<g>
</g>
<g>
</g>
<g>
</g>
<g>
</g>
<g>
</g>
<g>
</g>
<g>
</g>
<g>
</g>
<g>
</g>
<g>
</g>
<g>
</g>
</svg>
