<?xml version="1.0" encoding="iso-8859-1"?>
<!-- Generator: Adobe Illustrator 19.0.0, SVG Export Plug-In . SVG Version: 6.00 Build 0)  -->
<svg version="1.1" id="Capa_1" xmlns="http://www.w3.org/2000/svg" xmlns:xlink="http://www.w3.org/1999/xlink" x="0px" y="0px"
	 viewBox="0 0 512 512" style="enable-background:new 0 0 512 512;" xml:space="preserve">
<g>
	<g>
		<path d="M512,331.254c0-8.455-6.855-15.31-15.31-15.31h-4.78l2.102-2.102c5.979-5.978,5.979-15.673,0-21.652
			c-5.978-5.98-15.672-5.978-21.652,0l-23.754,23.753H447.9c-18.14,0-35.29-7.92-47.051-21.729l-20.916-24.556
			c14.386-19.587,25.834-42.692,34.218-69.149c24.049-8.514,41.091-22.513,50.706-41.67
			c17.032-33.939,23.057-112.263-18.564-133.307c-18.57-9.39-42.609-6.039-67.689,9.431c-19.833,12.234-38.039,30.817-47.513,48.496
			c-18.091,33.758-10.997,63.525-6.431,76.092c-5.019,15.875-11.59,29.568-19.661,41.12l-18.768-15.986
			c-13.809-11.761-21.729-28.911-21.729-47.051v-0.705l23.753-23.753c5.979-5.978,5.979-15.673,0-21.652
			c-5.978-5.978-15.673-5.978-21.652,0l-2.102,2.102v-4.781c0-8.455-6.855-15.31-15.31-15.31c-8.456,0-15.31,6.855-15.31,15.31
			v4.781l-2.102-2.102c-5.978-5.978-15.673-5.978-21.652,0s-5.979,15.673,0,21.652l23.754,23.753v0.705
			c0,27.126,11.844,52.772,32.494,70.362l17.757,15.125c-25.19,20.132-59.27,27.415-102.034,21.648
			c-3.547-0.479-7.102-0.843-10.66-1.107l-23.765-27.901c-17.589-20.65-43.235-32.494-70.362-32.494h-0.705l-23.754-23.753
			c-5.978-5.978-15.673-5.978-21.652,0c-5.978,5.978-5.978,15.673,0,21.652l2.102,2.102h-4.78c-8.455,0-15.31,6.855-15.31,15.31
			s6.855,15.31,15.31,15.31h4.781l-2.103,2.103c-5.978,5.978-5.978,15.673,0,21.652c2.99,2.99,6.908,4.485,10.826,4.485
			c3.917,0,7.837-1.495,10.827-4.485l23.754-23.754h0.705c18.139,0,35.289,7.92,47.05,21.729l8.026,9.422
			c-9.895,1.458-19.6,3.755-28.956,6.886c-25.686,8.593-48.854,23.514-66.997,43.147C5.151,328.924-6.307,371.143,3.302,417.166
			c7.076,33.89,23.207,57.903,23.89,58.909c2.893,4.258,7.671,6.707,12.663,6.707c1.22,0,2.453-0.147,3.673-0.447
			c6.219-1.537,10.823-6.783,11.542-13.148c0.08-0.699,8.379-70.321,51.239-109.714c5.459-5.017,26.096-21.005,62.485-16.097
			c12.736,1.718,25.051,2.733,36.954,3.078l21.633,28.396c10.993,14.43,15.085,32.871,11.228,50.595l-0.15,0.689l-28.261,18.16
			c-7.113,4.572-9.175,14.044-4.603,21.157c4.571,7.115,14.043,9.174,21.157,4.604l2.5-1.607l-1.017,4.671
			c-1.797,8.263,3.443,16.418,11.705,18.216c1.097,0.238,2.191,0.353,3.27,0.353c7.045,0,13.386-4.892,14.946-12.057l1.017-4.671
			l1.607,2.501c2.925,4.553,7.857,7.037,12.894,7.037c2.833,0,5.701-0.787,8.263-2.432c7.113-4.572,9.175-14.044,4.603-21.157
			l-18.16-28.262l0.15-0.69c5.768-26.506-0.352-54.084-16.79-75.662l-8.501-11.159c39.464-4.141,73.37-17.116,101.287-38.859
			c5.275-4.108,10.312-8.519,15.122-13.214l17.895,21.008c17.589,20.65,43.235,32.494,70.362,32.494h0.705l23.754,23.754
			c2.991,2.991,6.908,4.485,10.827,4.485c3.917,0,7.837-1.495,10.826-4.485c5.979-5.978,5.979-15.673,0-21.652l-2.102-2.103h4.78
			C505.145,346.565,512,339.71,512,331.254z M215.084,316.018c-13.36,0-27.432-0.996-42.196-2.988
			c-48.239-6.505-77.124,14.545-87.3,23.898c-26.198,24.08-41.446,56.387-50.141,82.638c-7.813-28.618-9.166-68.391,23.476-103.712
			c25.232-27.303,60.402-42.125,98.666-42.125c6.721,0,13.54,0.457,20.415,1.384c59.316,8.006,106.896-6.47,139.443-41.338
			c0.441-0.409,0.866-0.844,1.266-1.313c0.123-0.145,0.227-0.299,0.344-0.447c16.161-17.927,28.489-41.024,36.551-69.038
			c1.089-3.787,0.678-7.848-1.151-11.339c-0.125-0.237-12.001-24.558,3.625-53.716c14.4-26.873,55.307-54.716,74.395-45.065
			c0,0,0,0,0,0.001c8.072,4.081,13.652,18.573,14.564,37.821c0.917,19.345-2.921,41.217-9.55,54.425
			c-9.66,19.247-30.685,25.742-37.594,27.876c-3.673,1.134-10.509,3.247-12.849,11.376
			C361.86,271.869,304.105,316.021,215.084,316.018z"/>
	</g>
</g>
<g>
</g>
<g>
</g>
<g>
</g>
<g>
</g>
<g>
</g>
<g>
</g>
<g>
</g>
<g>
</g>
<g>
</g>
<g>
</g>
<g>
</g>
<g>
</g>
<g>
</g>
<g>
</g>
<g>
</g>
</svg>
