<!-- Created with Inkscape (http://www.inkscape.org/) -->
<svg xmlns:rdf="http://www.w3.org/1999/02/22-rdf-syntax-ns#" xmlns="http://www.w3.org/2000/svg" xml:space="preserve" height="100%" width="100%" version="1.1" xmlns:cc="http://creativecommons.org/ns#" xmlns:xlink="http://www.w3.org/1999/xlink" viewBox="0 0 50.4259 50.42593" xmlns:dc="http://purl.org/dc/elements/1.1/"><defs><linearGradient id="linearGradient3769" y2="25.665" gradientUnits="userSpaceOnUse" x2="13.857" y1="32.539" x1="21.199"><stop style="stop-color:#71b8ff;" offset="0"/><stop style="stop-color:#71b8ff;stop-opacity:0;" offset="1"/></linearGradient><linearGradient id="linearGradient3777" y2="39.947" gradientUnits="userSpaceOnUse" x2="9.9354" y1="48.03" x1="2.3243"><stop style="stop-color:#71b8ff;" offset="0"/><stop style="stop-color:#71b8ff;stop-opacity:0;" offset="1"/></linearGradient><linearGradient id="linearGradient3785" y2="24.331" gradientUnits="userSpaceOnUse" x2="20.94" y1="16.323" x1="12.63"><stop style="stop-color:#71b8ff;" offset="0"/><stop style="stop-color:#71b8ff;stop-opacity:0;" offset="1"/></linearGradient></defs><metadata><rdf:RDF><cc:Work rdf:about=""><dc:format>image/svg+xml</dc:format><dc:type rdf:resource="http://purl.org/dc/dcmitype/StillImage"/><dc:title/></cc:Work></rdf:RDF></metadata>
	<path style="stroke-linejoin:round;stroke-width:0.20000000000000001;fill:url(#linearGradient3785);" d="M34.438,0,5,29.438v2h5l28.844-28.844c-1.401-0.9653-2.869-1.8375-4.406-2.5938z"/><path style="stroke-linejoin:round;stroke-width:0.20000000000000001;fill:url(#linearGradient3769);" d="m40.62,3.8392-28.562,28.594v6h8v8l3.1875-3.1875v-11.469h8.375v-8.4688h11.562l7.3125-7.3125c-2.3388-4.7558-5.7418-8.9181-9.875-12.156z"/><path style="stroke-linejoin:round;stroke-width:0.20000000000000001;fill:url(#linearGradient3777);" d="m2.5892,39.433-2.5312,11,10.406-2.4062c-1.3164-3.9605-3.5421-7.511-7.875-8.5938z"/>
<path style="stroke-width:0;stroke-miterlimit:4;fill:#0078f0;" d="m34.59,26.621,0,8.0938-8.0625,0,0,7.5625,8.0625,0,0,8.0625,7.5625,0,0-8.0625,8.0938,0,0-7.5625-8.0938,0,0-8.0938-7.5625,0z"/></svg>
