<?xml version="1.0" encoding="utf-8"?>
<!-- Generator: Adobe Illustrator 19.1.0, SVG Export Plug-In . SVG Version: 6.00 Build 0)  -->
<svg version="1.1" id="Layer_1" xmlns="http://www.w3.org/2000/svg" xmlns:xlink="http://www.w3.org/1999/xlink" x="0px" y="0px"
	 viewBox="0 0 432 432" style="enable-background:new 0 0 432 432;" xml:space="preserve">
<style type="text/css">
	.st0{fill:#FFFFFF;}
	.st1{fill:none;}
	.st2{fill:#A4DBDD;}
	.st3{fill:#3FB48B;}
	.st4{fill:#78CAB8;}
	.st5{fill:#1F3C1F;}
</style>
<g>
	<path class="st0" d="M349.6,141.3H328c-9.4-54.3-56.7-95.6-113.7-95.6c-24.9,0-48,7.9-66.9,21.4c-9.3-14-16.8-7.3-20,2.7
		c-2.8,8.7-0.6,14.7,0.6,17c-80,60.9-20.2,141.6-20.2,141.6c5.2-0.4,9.8,0,13.2,0.4c21,28.8,55,47.6,93.4,47.6
		c63.7,0,115.4-51.7,115.4-115.4c0-0.2,0-0.4,0-0.6L349.6,141.3z"/>
	<g>
		<path class="st1" d="M285.9,141.6l-0.2,0.3c0.1-0.1,0.2-0.2,0.4-0.3c0.7-1,1.5-1.9,2.4-2.7C286.8,140.4,285.9,141.5,285.9,141.6z"
			/>
		<path class="st1" d="M243.2,75.3c0.1-0.3,0-0.6-0.2-0.7c-5-4-12.9-2.5-16-1.6v-2.3c0-0.7-0.7-1.2-1.4-0.9l-2.5,1.1
			c-0.5-1.9-1.8-5.8-4.3-9c-1.4-1.8-3.2-3.4-5.4-4.2c-0.3-0.1-0.5,0-0.7,0.2c-0.3,0.4-0.7,1.5-0.4,3.6c0.1,1.1,0.4,2.4,1,4
			c0.1,0.2,0.2,0.4,0.4,0.6c0.5,0.5,1.8,1.5,3.1,2c-1.2-0.2-3-0.4-3.3,0.3c-0.4,1.1,2.7,6.9,4.9,7c0.7,0,1.4-0.3,2.1-0.7l-0.3,0.4
			l-0.2,0.9l0,0l-1,4.7c-0.2,0.9,0.9,1.5,1.6,0.8l4.3-4.2l0,0c0,0.8,0.1,1.6,0.5,2.2c1.2,1.8,7.8,1.6,8.6,0.6
			c0.4-0.6-0.5-1.9-1.3-2.8c0,0,0,0,0,0c0,0,0-0.1-0.1-0.1c0,0,0.1,0.1,0.1,0.1c0,0,0,0,0.1,0c1.1,0.8,2.5,1.3,3.1,1.5
			c0.2,0.1,0.5,0.1,0.7,0c0.8-0.2,1.4-0.3,2-0.5c0,0,0,0,0.1,0C241.9,77.2,242.9,76,243.2,75.3z"/>
		<path class="st1" d="M149.7,242.1c0.9-1.3,1.9-2.6,3-3.8c-2,2.2-3.1,3.8-3.2,3.9l-0.2,0.3C149.5,242.3,149.6,242.2,149.7,242.1z"
			/>
		<path class="st1" d="M212.4,94.1c36.2,0.7,62.2,10.7,77.7,19c17,9.1,25.4,18.2,25.5,18.3l0.2,0.3c0-0.1-0.1-0.2-0.2-0.3
			c-4.5-4.8-10.1-8.8-15.5-12.4c-14.4-9.4-30.7-16-47.4-19.9C239.5,95.9,226,94.4,212.4,94.1c0.5-2.2,1.3-4.7,3.1-5.9
			c0.1,0,0.1-0.1,0.2-0.2l-0.3,0.1C213.8,88.9,212.8,92.2,212.4,94.1z"/>
		<path class="st1" d="M293.3,135c6.4-4,14.3-5.1,21.7-2.3c0.1,0,0.2,0.1,0.3,0.1l-0.4-0.2C305.9,129,298.4,131.6,293.3,135z"/>
		<path class="st1" d="M278.3,92.1L278.3,92.1c0.2,0.2,0.5,0.4,0.8,0.5c1,0.2,3-1.9,2.9-2.4c0-0.3-0.7-0.4-1.3-0.5
			c0.6-0.1,1.2-0.3,1.4-0.5c0.1,0,0.2-0.1,0.2-0.2c0.7-1.1,1-1.8,1.1-2.3c0.1-0.4,0-0.7,0-0.9c0-0.1-0.2-0.2-0.3-0.2
			c-0.3,0-0.6,0.1-0.9,0.2c-2.4,0.7-4.1,3.1-4.7,4.2l-0.7-0.7c-0.2-0.2-0.6-0.2-0.7,0.2l-0.4,1.1c-1-0.6-3.7-2-6.2-1.5c0,0,0,0,0,0
			c-0.3,0.1-0.6,0.1-0.9,0.3c-0.1,0-0.2,0.2-0.2,0.3c0,0.4,0.4,1.2,2.5,2.3c0.1,0,0.2,0.1,0.3,0.1c0.3,0,0.9,0,1.5-0.3
			c-0.4,0.3-1,0.7-0.9,1.1c0.2,0.5,3,1.4,3.7,0.7c0.2-0.2,0.3-0.4,0.4-0.7l0,0.1l1.3,2.1c0.2,0.4,0.7,0.2,0.7-0.2l0-1l0,0
			L278.3,92.1z"/>
		<path class="st1" d="M254.3,70.5c-0.4,0.5,0.3,4.2,1.4,4.6c0.3,0.1,0.8,0.1,1.2,0l-0.2,0.2l-1.6,2.9c-0.3,0.5,0.2,1,0.7,0.7l3-1.5
			c-0.1,0.4-0.2,0.8-0.1,1.2c0.4,1.2,4,2.2,4.5,1.8c0.4-0.2,0-1.3-0.3-2c0.4,0.7,1.2,1.3,1.5,1.6c0.1,0.1,0.3,0.2,0.4,0.2
			c3,0.3,4-0.4,4.3-0.7c0.1-0.1,0.1-0.3,0-0.4c-2-3-6.6-3.6-8.4-3.7l0.4-1.2c0.1-0.4-0.2-0.8-0.6-0.7l-1.5,0.2c0-0.3,0-0.8,0-1.3
			c-0.1-2.2-0.6-5.7-3-7.5c-0.1-0.1-0.3-0.1-0.4,0c-0.4,0.3-1.1,1.2-1.1,4.2c0,0.1,0,0.3,0.1,0.4c0.2,0.4,0.7,1.1,1.3,1.6
			c-0.4-0.2-0.9-0.5-1.3-0.5C254.6,70.3,254.4,70.4,254.3,70.5z"/>
		<path class="st2" d="M322.2,191.2c-20.9,42.9-61.7,74.3-110.3,82.3c-13.2-0.2-22.4-4.1-34.1-8.5c12.3,4.7,22.3,8.5,36.3,8.5
			c52.1,0,95.9-35.4,108.7-83.4c0,0-20.8,48.6-74.1,57.9c21-3.7,33.5-15.2,45.9-25.3C310.8,209.5,319.9,195.1,322.2,191.2z"/>
		<path class="st3" d="M154.3,256.5c-0.1-0.1-0.2-0.1-0.3-0.2C154.2,256.4,154.3,256.4,154.3,256.5z"/>
		<path class="st3" d="M159.2,259.4c0.4,0.2,0.9,0.5,1.3,0.7c0,0,0,0,0,0C160.1,259.9,159.7,259.6,159.2,259.4z"/>
		<path class="st3" d="M156.4,257.8c-0.2-0.1-0.5-0.3-0.7-0.4C156,257.5,156.2,257.6,156.4,257.8z"/>
		<path class="st3" d="M158.6,259c-0.4-0.2-0.7-0.4-1.1-0.6C157.8,258.6,158.2,258.8,158.6,259z"/>
		<path class="st3" d="M241.5,246.5c0.1,0,0.3,0,0.4-0.1C241.7,246.5,241.6,246.5,241.5,246.5z"/>
		<path class="st3" d="M244.2,246.1c0.1,0,0.2,0,0.2,0C244.4,246.1,244.3,246.1,244.2,246.1z"/>
		<path class="st3" d="M236,247.2c0.2,0,0.3,0,0.5,0C236.4,247.2,236.2,247.2,236,247.2z"/>
		<path class="st3" d="M238.7,246.9c0.2,0,0.3,0,0.5-0.1C239.1,246.9,238.9,246.9,238.7,246.9z"/>
		<path class="st4" d="M322.2,191.2c-2.3,3.9-11.4,18.2-27.6,31.5c-26.9,25.2-62.9,40.6-102.7,40.6c-10.8,0-21.2-1.2-31.3-3.3
			c0.1,0.1,0.2,0.1,0.3,0.2c0.5,0.3,1,0.5,1.4,0.8c0.3,0.2,0.7,0.3,1,0.5c0.4,0.2,0.8,0.4,1.1,0.6c0.6,0.3,1.1,0.5,1.7,0.8
			c0.2,0.1,0.4,0.2,0.6,0.3c0.9,0.4,1.7,0.8,2.6,1.2c0,0,0.1,0,0.1,0c0.8,0.4,1.6,0.7,2.5,1c0.8,0.3,1.5,0.6,2.3,0.9
			c0.1,0,0.1,0,0.2,0.1c11.7,4.4,24.3,6.9,37.5,7.2C260.5,265.5,301.3,234.1,322.2,191.2z"/>
		<path class="st4" d="M160.5,260.1c0.1,0.1,0.2,0.1,0.3,0.2C160.7,260.2,160.6,260.1,160.5,260.1
			C160.5,260.1,160.5,260.1,160.5,260.1z"/>
		<path class="st4" d="M174.3,266.4c-0.1,0-0.1,0-0.2-0.1C174.2,266.3,174.3,266.4,174.3,266.4z"/>
		<path class="st4" d="M171.8,265.4c-0.8-0.3-1.7-0.7-2.5-1C170.2,264.7,171,265.1,171.8,265.4z"/>
		<path class="st2" d="M212.2,61.5c-0.3-2.1,0.1-3.1,0.4-3.6c0.2-0.2,0.4-0.3,0.7-0.2c2.2,0.8,4,2.4,5.4,4.2
			c5.1,1.4,10.9,3.1,16.3,4.3c6.7,1.5,13.8,3.6,19.8,4.2c0.4,0.1,0.9,0.3,1.3,0.5c-0.6-0.5-1.1-1.2-1.3-1.6
			c-0.1-0.1-0.1-0.3-0.1-0.4c0-3,0.7-3.9,1.1-4.2c0.1-0.1,0.3-0.1,0.4,0c2.4,1.8,2.9,5.3,3,7.5c3.9,2,8.2,4.6,12.2,6.9
			c3.8,2.2,7.6,4.7,11.1,6.7c0.3-0.1,0.6-0.1,0.9-0.2c0.1,0,0.2,0.1,0.3,0.2c0.1,0.2,0.1,0.4,0,0.9c2.2,4.3,10.7,12,16.2,18.3
			c10,11.4,19.1,24.2,25.3,38C316.4,89.4,270,48.5,214,48.5c-16.1,0-31.4,3.4-45.2,9.5c0.7,1.8-1,5.5-1.3,6.9
			c-0.3,1.2-0.4,2.4-0.6,3.6c6.5-0.3,13.3-2.2,20.3-3.4c6.8-1.2,14.2-2.7,21.3-2.7C209.8,62.4,210.9,61.4,212.2,61.5z"/>
		<path class="st4" d="M232.4,77.1C232.4,77.1,232.5,77.2,232.4,77.1c0.1,0.1,0.1,0.1,0.1,0.1C232.5,77.2,232.5,77.1,232.4,77.1z"/>
		<path class="st4" d="M283.6,86.7c-0.1,0.5-0.4,1.3-1.1,2.3c-0.1,0.1-0.2,0.2-0.2,0.2c-0.3,0.1-0.9,0.4-1.4,0.5
			c0.5,0.1,1.2,0.2,1.3,0.5c0,0.5-2,2.6-2.9,2.4c-0.3-0.1-0.6-0.3-0.8-0.6l0,0.1l0,3.2c20,12.1,36.2,28.2,46.7,49.2
			c0,0,0.1-0.1,0.3-0.2c-0.1-0.4-0.1-0.9-0.2-1.3C316.9,120.5,302.3,101,283.6,86.7z"/>
		<path class="st4" d="M225.5,69.7c0.7-0.3,1.4,0.2,1.4,0.9v2.3c3.1-0.8,11.1-2.4,16,1.6c0.2,0.2,0.3,0.5,0.2,0.7
			c-0.3,0.7-1.3,1.9-4.7,2.9c10.6,3.5,21,7.8,31.1,10.8c2.5-0.5,5.2,0.9,6.2,1.5l0.4-1.1c0.1-0.3,0.5-0.4,0.7-0.2l0.7,0.7
			c0.7-1.1,2.4-3.5,4.7-4.2c-7.2-5.3-15-9.9-23.3-13.6c0,0.5,0,0.9,0,1.3l1.5-0.2c0.4,0,0.7,0.4,0.6,0.7l-0.4,1.2
			c1.8,0.1,6.4,0.7,8.4,3.7c0.1,0.1,0.1,0.3,0,0.4c-0.3,0.4-1.3,1-4.3,0.7c-0.1,0-0.3-0.1-0.4-0.2c-0.4-0.3-1.1-0.9-1.5-1.6
			c0.3,0.6,0.7,1.7,0.3,2c-0.5,0.4-4.1-0.6-4.5-1.8c-0.1-0.3,0-0.7,0.1-1.2l-3,1.5c-0.5,0.2-1-0.3-0.7-0.7l1.6-2.9l0.2-0.2
			c-0.4,0.1-0.9,0.1-1.2,0c-1.2-0.5-1.9-4.1-1.4-4.6c0.1-0.1,0.3-0.1,0.5-0.1c-11.3-4.5-23.4-7.5-36-8.5c2.5,3.2,3.8,7.1,4.3,9
			L225.5,69.7z"/>
		<path class="st4" d="M219.9,75.9l0.2-0.9l0.3-0.4c-0.7,0.4-1.4,0.7-2.1,0.7c-2.2-0.2-5.3-6-4.9-7c0.3-0.7,2.1-0.5,3.3-0.3
			c-1.3-0.5-2.6-1.5-3.1-2c-0.2-0.2-0.3-0.4-0.4-0.6c-0.6-1.7-0.9-3-1-4c-1.3,0-2.5-0.1-3.8-0.1c-14.6,0-28.5,2.5-41.5,7.1
			c-0.3,2.4-0.5,4.7-1.2,7c-1.2,3.8-3.4,7.5-6.3,10.5c1.5-0.1,3.1-0.1,4.6,0.1c15.3-5.3,32-10.1,49.7-10.1
			C215.8,76,217.9,75.8,219.9,75.9z"/>
		<path class="st2" d="M157.3,63.9c-3.3,1.9-6.4,4-9.5,6.2c1,1.8,1.7,3.7,2.3,5.2C152.2,71.4,154.5,67.3,157.3,63.9z"/>
		<g>
			<path class="st3" d="M241.9,246.5c-0.1,0-0.3,0-0.4,0.1c-0.7,0.1-1.5,0.2-2.2,0.3c-0.2,0-2,0.2-2.7,0.3c-0.2,0-2.3,0.2-3.2,0.3
				c0,0,0,0-0.1,0c-1,0.1-1.9,0.1-2.9,0.2c0,0-2.1,0.1-3.1,0.1c0,0-3.2,0-3.2,0c-0.4,0-6-0.2-6.1-0.2c-17.4-1-37.5-5.8-55.9-18
				c-3.9,3-7.2,6.3-9.4,8.8c-1.1,1.3-3,3.8-3,3.8c-0.1,0.1-0.6,0.8-0.6,0.8s-0.5-0.5-0.6-0.6c-6.3-6.8-14.3-11.3-23.1-13.6
				c-0.6-0.1-1.1-0.3-1.7-0.4c1.6,2.1,3.2,4.1,4.9,6.1c0.5,0.6,1.1,1.2,1.6,1.9c0.1,0.2,0.3,0.3,0.4,0.5c0.2,0.3,0.5,0.5,0.7,0.8
				c4.1,4.4,8.4,8.4,13.1,12.1c3,2.4,6.2,4.6,9.5,6.7c0.1,0.1,0.2,0.1,0.3,0.2c0.5,0.3,0.9,0.6,1.4,0.9c0.2,0.1,0.5,0.3,0.7,0.4
				c0.3,0.2,0.7,0.4,1,0.6c0.4,0.2,0.7,0.4,1.1,0.6c0.2,0.1,0.4,0.2,0.6,0.3c0.4,0.2,0.9,0.5,1.3,0.7c10.1,2.1,20.6,3.3,31.3,3.3
				c39.7,0,75.8-15.4,102.7-40.6c-12.4,10.1-29.1,19.6-50.1,23.3C244.4,246.1,242.7,246.4,241.9,246.5z"/>
			<path class="st3" d="M325.3,144.3C325.3,144.3,325.3,144.3,325.3,144.3C325.3,144.3,325.3,144.3,325.3,144.3
				c0,0-14.1-32.1-47.1-50.6v0.1l0,1c0,0.4-0.5,0.5-0.7,0.2l-1.3-2.1l0-0.1c-0.1,0.3-0.2,0.5-0.4,0.7c-0.7,0.6-3.5-0.3-3.7-0.7
				c-0.1-0.3,0.4-0.8,0.9-1.1c-0.5,0.2-1.2,0.3-1.5,0.3c-0.1,0-0.2,0-0.3-0.1c-2.1-1.1-2.5-1.9-2.5-2.3c0-0.1,0-0.2,0.2-0.3
				c0.3-0.1,0.6-0.2,0.9-0.3c0,0,0,0,0,0c-9.7-4.9-20.2-8.6-31.1-10.8c0,0,0,0-0.1,0c-0.6,0.2-1.3,0.4-2,0.5c-0.2,0-0.5,0-0.7,0
				c-0.6-0.2-2-0.7-3.1-1.5c0,0,0,0-0.1,0c0,0,0,0,0,0c0,0,0,0,0,0c0.8,0.9,1.8,2.3,1.3,2.8c-0.7,0.9-7.3,1.2-8.6-0.6
				c-0.4-0.6-0.5-1.3-0.5-2.2l0,0l-4.3,4.2c-0.7,0.7-1.8,0.1-1.6-0.8l1-4.7l0,0c-2-0.1-4.1-0.2-6.2-0.2c-17.7,0-34.5,3.7-49.8,10.4
				c0,0,0,0,0,0c3.6,0.5,7.2,1.8,10.5,3.3c1.9,0.8,2.8,1.5,4.6,1.4c2.7-0.2,5.4-0.9,8.2-1.2c6.1-0.6,12.2-0.8,18.3-0.9
				c3.4,0,6.3-2.7,9.8-2c0.1,0,1.9,0.6,1.9,0.6l-1.5,0.7c-0.1,0.1-0.1,0.1-0.2,0.2c-1.8,1.2-2.6,3.7-3,5.9c13.5,0.3,27,1.8,40.1,5
				c16.7,4,33,10.5,47.4,19.9c5.5,3.6,11.1,7.6,15.5,12.4c0.1,0.1,1.9,2.2,1.9,2.2s-2.5-0.9-2.6-1c-7.4-2.8-15.3-1.7-21.7,2.3
				c-2,1.3-3.6,2.7-4.8,3.8c-0.8,0.8-2.8,3.2-2.8,3.2s-0.5-0.2-0.6-0.2c-4.1-1.8-8.3-3.4-12.7-4.7c1,2.3,1.8,4.8,2.5,7.2h-0.1h-18.8
				l0,0l42.9,40.4l43.1-40.4l0,0H325.3z"/>
		</g>
		<path class="st5" d="M289.4,114.3C274,106,247.9,96,211.6,95.5l-0.8,0l0.1-0.8c0.1-0.5,0.7-4.3,2.4-6.4c-1.2,0.2-2.9,0.7-5.4,1.9
			l-0.1,0.1h-0.2c-0.2,0-21.6,0-29.6,2.4l-0.3,0.1l-0.2-0.1c-0.1-0.1-12.8-6.9-20.3-4.7l-3.1,0.9l2.5-2.1c0.1-0.1,8.2-7,8.5-16.4
			c0.1-2.9,2.1-10.7,2.3-11.5c0.1-0.2-0.1-0.4-0.1-0.4c0-0.1-0.2-0.1-0.3-0.1c-2.1,0.3-7.9,2.7-16.4,19.2l-0.8,1.5l-0.5-1.6
			c-0.1-0.2-5.1-16.5-13.5-15.3c-5.2,0.7-7.3,12-7.3,16.2c0,4,2.7,8.2,2.7,8.2l0.3,0.5l-0.4,0.4c-0.2,0.2-5.6,4.8-7.5,6.2
			c-6.4,4.8-18.3,15.3-26.3,31.9c-10.1,21-10.9,45-2.4,71.1c0.1,0.4,0.2,0.7,0.4,1.1c0.6,1.4,1.1,2.7,1.6,4c0.1,0.2,0.2,0.5,0.3,0.7
			c1.1,2.7,2.2,5.4,3.2,8c0.1,0.3,0.3,0.6,0.5,1c2.3,4.8,5.4,10.6,8.1,14c0.5,0,1.2,0,1.9,0c7.8,0,25.5,1.7,38.1,15.3
			c1.3-1.7,5.2-6.5,10.5-11c8.7-7.2,17.4-10.3,25.2-9c1.4-2.9,9.2-20.5-4.1-35.9l-0.1-0.1c-0.1-0.1-1.9-3.4-1.9-7.7
			c0-3.8-2.6-8.7-7.2-13.2c-4.4-4.4-13.8-11.7-13.9-11.8l-0.6-0.5l0.6-0.5c0.1-0.1,2.3-2,4.6-2.3c-1.2-0.7-3.2-1.2-6.2-0.7l-0.2,0
			l-0.2-0.1c-0.2-0.1-6-3.7-11.5-10.9l-0.3-0.4l0.3-0.4c0.1-0.2,11.6-15.6,35.8-16.9c12.7-0.7,21.5,4.2,26.7,8.5
			c4.6,3.8,7.1,7.6,7.9,9c2.1-0.7,10.2-3.4,21.5-4.4c12-1.1,30.3-0.6,49.4,8.1c2-2.4,12.6-14.1,27.4-10
			C309.1,127.2,301.5,120.7,289.4,114.3z M163.3,60.1c0.5-0.4,1.1-0.7,1.7-1C164.4,59.3,163.9,59.7,163.3,60.1
			c-0.5,0.4-1,0.8-1.5,1.3c0,0,0,0,0,0C162.3,60.9,162.8,60.5,163.3,60.1z M148.1,149.2c-44-27.8-27.4-47.4-27.4-47.4
			C109.7,123.1,148.1,149.2,148.1,149.2z M224.5,101.7c45.4,2.5,58.9,31.3,58.9,31.3C265.1,105.9,224.5,101.7,224.5,101.7z"/>
		<path class="st5" d="M100.3,210.2c0,0.1,0.1,0.2,0.1,0.3c-1.1-2.6-2.2-5.3-3.2-8C98.2,204.9,99.1,207.2,100.3,210.2z"/>
		<path class="st4" d="M148.1,149.2c0,0-38.4-26-27.4-47.4C120.8,101.7,104.1,121.3,148.1,149.2z"/>
		<path class="st4" d="M283.4,133.1c0,0-13.5-28.8-58.9-31.3C224.5,101.7,265.1,105.9,283.4,133.1z"/>
	</g>
	<g>
		<circle class="st5" cx="244.6" cy="219.3" r="3.6"/>
		<circle class="st5" cx="278.1" cy="206.5" r="5.5"/>
		<g>
			<path class="st5" d="M256.3,199.2c0,0-0.5,0.5-0.3,1c0.2,0.5-0.4,1.4-0.2,1.9c0.2,0.5-0.9,1.4-0.6,1.5c0.3,0.1,3.4-3.6,3.4-5.5
				C258.7,196,256.3,199.2,256.3,199.2z"/>
			<path class="st5" d="M257.8,196.7c0,0-2.5-0.2-3.7,0.6c-1.2,0.8-3.8,2-3.3,2.5c0.5,0.5,4.7,0.2,6.3-0.8
				C258.6,198,257.8,196.7,257.8,196.7z"/>
			<path class="st5" d="M258.4,195.9c0,0-0.2-3.4-3.4-2.7c0,0,0.4,0.7,0.5,0.9c0,0.3,0.3,0.5,0.6,1.2c0.3,0.7-0.1,1.5,1.6,1.4
				C259.5,196.6,258.4,195.9,258.4,195.9z"/>
			<path class="st5" d="M260.4,187.8c0,0,0.9,3.6-1.8,8.7c0,0-0.1-1.4-0.3-1.8c-0.2-0.4-0.2-3.7,0.5-4S259.5,187.3,260.4,187.8z"/>
			<path class="st5" d="M257.8,198.2l3.7,1.2c0,0,1.6-0.9,0.7-1.7c-0.9-0.8-3.9-2.5-3.9-2.5l-1.5,2.1L257.8,198.2z"/>
			<g>
				
					<rect x="261.5" y="199" transform="matrix(-0.9005 -0.4348 0.4348 -0.9005 412.856 492.7711)" class="st5" width="2.7" height="0.4"/>
			</g>
		</g>
		<g>
			<path class="st5" d="M244,228.1c0,0,0.7-0.1,0.9-0.7s1.2-1.1,1.3-1.6c0.2-0.5,1.6-0.7,1.4-1c-0.2-0.3-5.2,1.2-6.4,2.8
				C239.9,229.4,244,228.1,244,228.1z"/>
			<path class="st5" d="M241.1,229.3c0,0,2.1,1.7,3.7,1.7c1.6,0,4.6,0.6,4.5-0.2c-0.2-0.7-4.1-3-6.1-3.1
				C241.2,227.7,241.1,229.3,241.1,229.3z"/>
			<path class="st5" d="M240.1,229.6c0,0-1.9,3.1,1.3,4.5c0,0,0-0.9,0.2-1.1c0.1-0.2,0-0.6,0.2-1.5c0.2-0.9,1-1.2-0.6-2.2
				C239.6,228.4,240.1,229.6,240.1,229.6z"/>
			<path class="st5" d="M233.4,235.7c0,0,1.4-3.8,6.9-6.8c0,0-0.7,1.3-0.8,1.8s-2.1,3.4-2.9,3.3
				C235.8,233.9,233.9,236.7,233.4,235.7z"/>
			<path class="st5" d="M242,228l-2.6-3.4c0,0-2-0.2-1.7,1.1c0.3,1.3,2,4.5,2,4.5l2.6-1L242,228z"/>
			<g>
				
					<rect x="236.7" y="223.9" transform="matrix(0.5008 0.8655 -0.8655 0.5008 312.8112 -94.2457)" class="st5" width="2.8" height="0.4"/>
			</g>
		</g>
		<path class="st5" d="M235.6,184.7c0,0,5.9,3,8.7,13l0.4-2.1c0,0-2.3-7.5-8.9-11.5L235.6,184.7z"/>
		<path class="st5" d="M242.5,172.3c0,0,6.9,6.2,1.1,28.1l1.1-2.3c0,0,5.3-18.2-0.8-26.4L242.5,172.3z"/>
		<path class="st5" d="M255.3,215.9c0,0-0.9-5.9-21.6-12c-16-4.7-9.1-15.2-25.2-20.2c-11.1-3.4,16.9-0.8,26.7,5.5
			c4.9,3.1,7.6,7.3,7.9,8.1c0.4,0.8,2.9,0.7,6.8,2.6c7.8,3.7,7.4,6.8,7.1,11.9C257,215.2,255.3,215.9,255.3,215.9z"/>
		<circle class="st5" cx="266.2" cy="216.2" r="3"/>
		<circle class="st5" cx="261.4" cy="221.9" r="1.7"/>
		<path class="st5" d="M261.8,222.3c0,0,3.4,3.4,4.9,2.7l-0.3,1c0,0-4.1-1.6-4.9-3.4C260.6,220.6,261.8,222.3,261.8,222.3z"/>
		<path class="st5" d="M266.4,216.6c0,0,2.1,5.3-0.1,10.7c-0.8,1.9-3.7,4.7-2.2,2.3c2.1-3.2,3.9-8.3,1-14.2"/>
		<circle class="st5" cx="196.4" cy="222.2" r="3"/>
		<circle class="st5" cx="193" cy="228.9" r="1.7"/>
		<path class="st5" d="M193.5,229.2c0,0,4.1,2.5,5.4,1.4l0,1.1c0,0-4.4-0.5-5.6-2.1C192,227.9,193.5,229.2,193.5,229.2z"/>
		<path class="st5" d="M196.7,222.6c0,0,3.4,4.7,2.5,10.4c-0.3,2-2.5,5.4-1.6,2.7c1.2-3.6,1.8-9-2.5-14"/>
		<path class="st5" d="M256.3,197.4c0,0-8.2-3.9-12.9,3.9l0.2-2.2c0,0,4.5-5.5,12.5-2.3L256.3,197.4z"/>
		<circle class="st5" cx="283" cy="218" r="2.3"/>
		<circle class="st5" cx="268.2" cy="202" r="3"/>
		<path class="st5" d="M255.2,185.5c0,0-8.3,8.4-10.9,13.9l0.2-2c0,0,6-9.5,10.7-13.3"/>
		<path class="st5" d="M251.5,172.7c0,0-1.6,19.8-10.5,30.4C240.9,203.1,251,195.6,251.5,172.7z"/>
		<path class="st5" d="M283.9,216.7c0,0,0.5,5.3-6.6,10.8C277.3,227.5,281.9,222.6,283.9,216.7z"/>
		<path class="st5" d="M268.2,202c0,0,11.5,10-1.4,26.4C266.8,228.3,277.9,212.7,268.2,202z"/>
		<path class="st5" d="M245.2,158.2c0,0,4.3,13.1,0.5,22.4C245.7,180.5,247.4,169,245.2,158.2z"/>
		<g>
			<path class="st5" d="M256.9,211.9l-2.3,1.2c4.3,13-5.2,21.1-9.9,24.2c-2.8-9.1,1.6-18,1.6-18l-1.7,0c-1.2,6.6-1.6,11-1.6,14
				c-0.9-2.5-1.7-3.9-1.7-3.9s-5.9-10.1-0.2,1.6c1,2.1,1.7,3.8,2.1,5.6c0.1,0.9,0.3,1.4,0.3,1.5c-0.8,0.5-1.4,0.7-1.4,0.7l-0.6,0.4
				c0.3,0,1.8-0.3,2.1-0.4c0.3,0,0.6-0.1,1-0.2c0.1,0,0.3,0,0.4-0.1c0,0,0.1,0,0.1,0C263,225.9,256.1,214.3,256.9,211.9z"/>
			<path class="st5" d="M257.7,235.2c11.4-6.6,19.8-17.8,21.3-27.2c-3,9-11.1,19.9-21.9,26.2c-1.9,1.1-3.4,2-4.6,2.8
				c1.4-0.4,2.8-0.7,4.2-1.1C257,235.6,257.3,235.4,257.7,235.2z"/>
		</g>
		<g>
			<path class="st5" d="M220.1,220.3c0,0,0.8,1.1,2,0.9c1.1-0.2,2.8,1.1,3.9,0.9c1-0.2,2.7,2.3,3,1.6c0.4-0.7-6.7-7.9-10.7-8.6
				C214.3,214.4,220.1,220.3,220.1,220.3z"/>
			<path class="st5" d="M215.4,216.5c0,0-1,5.2,0.4,7.9c1.3,2.7,3.1,8.5,4.3,7.6c1.1-0.9,1.5-9.8-0.1-13.4S215.4,216.5,215.4,216.5z
				"/>
			<path class="st5" d="M213.9,214.9c0,0-7.1-0.5-6.6,6.3c0,0,1.5-0.7,2.1-0.7c0.5,0,1.1-0.5,2.7-1s3,0.5,3.3-3
				C215.7,212.9,213.9,214.9,213.9,214.9z"/>
			<path class="st5" d="M197.4,208.7c0,0,7.8-1.1,17.8,5.9c0,0-3-0.1-3.7,0.2c-0.8,0.3-7.8-0.5-8.3-2
				C202.7,211.4,196.2,210.6,197.4,208.7z"/>
			<path class="st5" d="M218.5,216.7l3.6-7.6c0,0-1.5-3.6-3.4-2c-1.9,1.7-6.1,7.4-6.1,7.4l4,3.6L218.5,216.7z"/>
			<g>
				
					<rect x="219.1" y="206.2" transform="matrix(-0.5392 0.8422 -0.8422 -0.5392 515.4102 131.1109)" class="st5" width="5.5" height="0.7"/>
			</g>
		</g>
		<g>
			<path class="st5" d="M222.1,235.1c13.8-7.3,22.9-22.9,23.1-37.5c-2.3,13.5-11.1,28.7-24.2,35.6c-5.5,2.9-11.3,4.6-17.1,5.1
				c2.2,0.4,4.3,0.8,6.4,1.1C214.4,238.5,218.3,237.1,222.1,235.1z"/>
			<path class="st5" d="M217.5,211.9c-4.5,9.5-12.8,18.9-22.9,24.2c1,0.3,2,0.5,3,0.8C207.2,231.2,214.6,222,217.5,211.9z"/>
		</g>
		<circle class="st5" cx="244" cy="158.6" r="3.7"/>
		<circle class="st5" cx="255.8" cy="183.7" r="4"/>
		<circle class="st5" cx="234.7" cy="182.9" r="4.1"/>
		<circle class="st5" cx="244.3" cy="181.6" r="4.7"/>
		<circle class="st5" cx="239.9" cy="170.7" r="4"/>
		<circle class="st5" cx="251.5" cy="172.7" r="3.7"/>
	</g>
	<g>
		<g>
			<path class="st5" d="M216.9,173.2c0,0,5.9-0.8,5.6,1.2c-0.5,3.6-1.3,1.6-3.6,4.1c-2.3,2.5-13.5,3.9-15.7,3.5
				c-2.1-0.4,0.1-4.5,3-4.9C209.2,176.7,216.9,173.2,216.9,173.2z"/>
			<path class="st5" d="M219.5,174.5c0,0-3.7-17.6-19.7-24.3c0,0-4.3-2.4-5.3,1.2c-1,3.6,2.5,4.6,2.1,6.8c0,0,1,0.8,0.3,2.9l0.6,0.7
				c0,0-1.1,0-1.6,1.5c-0.5,1.5-1.3,2.4-1.5,2.8c-0.2,0.4,0.5,2,0.3,2.5c-0.6,1.6,1.1,2.3,0.5,4c-0.2,0.4-0.2,0.9,0,1.2
				c0.3,0.9,0.8,2.2,0.7,2.6c-0.2,0.5-0.1,2.3,1.8,2.2c1.9-0.1,7.9-2.9,11.2-0.5C212.1,180.5,219.5,174.5,219.5,174.5z"/>
			<path class="st5" d="M218.8,176.5c0,0-0.6,1.6-1.5,2.1c-0.9,0.5-1.9,1.1-2.1,1.6c-0.2,0.4-1.7,3.6-1.7,3.6s-0.9,0.6-1.3,0.5
				c-0.4-0.1,0.9-0.6,0.9-0.6s1.2-2.5,1.7-3.6c0.5-1.1,2.2-1.8,2.2-1.8s0.5-1.4,1.1-1.6C218.8,176.5,218.8,176.5,218.8,176.5z"/>
			<path class="st5" d="M218.7,177.3c0,0,0.7,2.1,0.3,3.2c-0.4,1.1-1.4,1-1.8,4.1c0,0,0.7,1.9,0.5,2.3c0,0-0.3,0.4-0.5-0.1
				c-0.2-0.5,0.1-1.4-0.4-2.3c-0.5-0.9,1.9-4.3,1.9-4.3s-0.8-2.1-0.5-3.1C218.5,176.3,218.7,177.3,218.7,177.3z"/>
			<path class="st5" d="M216.5,179.8c0,0-0.4,3-0.8,3.7c-0.4,0.6-0.7,0.4-0.9,1.7c0,0-0.3,0.1-0.2-0.5c0.1-0.6,0.3-0.7,0.7-1.3
				c0.4-0.6,0.9-3.3,0.5-3.7C215.5,179.2,216.5,179.8,216.5,179.8z"/>
			<path class="st5" d="M212.1,178.6c0,0-1.4,2.8-1.4,3.5c-0.1,0.7,0.4,0.7-0.2,1.9c0,0,0.2,0.3,0.4-0.4c0.2-0.6,0.2-0.8,0.2-1.5
				s1.1-3.2,1.7-3.3C213.3,178.8,212.1,178.6,212.1,178.6z"/>
		</g>
		<g>
			<path class="st5" d="M221.2,173.8c0,0,0.1,0,0.1,0c2.2-2.6,3-6.1,3-6.1c0-0.1,0-0.2-0.1-0.2c-0.1,0-0.1,0-0.2,0.1
				c0,0-0.8,3.5-3,6C221.1,173.6,221.1,173.7,221.2,173.8C221.2,173.7,221.2,173.8,221.2,173.8z"/>
		</g>
		<g>
			<path class="st5" d="M221.6,173.9C221.6,174,221.6,174,221.6,173.9c2.1-0.2,2.8-1.2,2.8-1.3s0-0.1,0-0.2c0,0-0.1,0-0.2,0
				c0,0-0.7,0.9-2.6,1.2c-0.1,0-0.1,0.1-0.1,0.2C221.5,173.9,221.5,173.9,221.6,173.9z"/>
		</g>
	</g>
	<path class="st0" d="M148.7,242.4c0,0-11.6-15.8-40.9-14l1.2-3C109,225.4,140.6,226.8,148.7,242.4z"/>
</g>
<g>
	<g>
		<path class="st5" d="M22.1,336.3v1c0,2.8-0.9,4.5-2.7,5.4c2.3,0.9,3.2,2.9,3.2,5.8v2.2c0,4.1-2.2,6.4-6.4,6.4H9.5v-26.9h6.4
			C20.3,330.1,22.1,332.1,22.1,336.3z M13.8,333.9v7.1h1.6c1.6,0,2.5-0.7,2.5-2.8v-1.5c0-1.9-0.7-2.8-2.1-2.8L13.8,333.9L13.8,333.9
			z M13.8,344.9v8.3h2.4c1.4,0,2.2-0.7,2.2-2.7v-2.3c0-2.5-0.8-3.3-2.7-3.3H13.8z"/>
		<path class="st5" d="M46.5,357h-4.3l-0.7-4.9h-5.2l-0.7,4.9h-3.9l4.3-26.9h6.2L46.5,357z M36.8,348.4h4.1l-2-13.6L36.8,348.4z"/>
		<path class="st5" d="M53.4,330.1h13v3.8H62v23h-4.2v-23h-4.4V330.1z"/>
		<path class="st5" d="M93.9,341.4h5.8v3.8h-5.8v7.9h7.3v3.8H89.7v-26.9h11.5v3.8h-7.3V341.4z"/>
		<path class="st5" d="M123.7,347v3.6c0,4.3-2.1,6.8-6.3,6.8c-4.1,0-6.3-2.5-6.3-6.8v-14c0-4.3,2.1-6.8,6.3-6.8
			c4.1,0,6.3,2.5,6.3,6.8v2.6h-4v-2.9c0-1.9-0.9-2.7-2.2-2.7s-2.2,0.7-2.2,2.7v14.5c0,1.9,0.9,2.6,2.2,2.6s2.2-0.7,2.2-2.6V347
			H123.7z"/>
		<path class="st5" d="M133.6,336.5c0-4.3,2.3-6.8,6.4-6.8c4.1,0,6.4,2.5,6.4,6.8v14c0,4.3-2.3,6.8-6.4,6.8c-4.1,0-6.4-2.5-6.4-6.8
			V336.5z M137.8,350.8c0,1.9,0.9,2.7,2.2,2.7s2.2-0.7,2.2-2.7v-14.5c0-1.9-0.9-2.7-2.2-2.7s-2.2,0.7-2.2,2.7V350.8z"/>
		<path class="st5" d="M156.6,341.6h7.7v3.8h-7.7V341.6z"/>
		<path class="st5" d="M174.9,330.1h4.3V357h-4.2L174.9,330.1L174.9,330.1z"/>
		<path class="st5" d="M193.6,337.5V357h-3.8v-26.9h5.3l4.3,16.1v-16.1h3.7V357h-4.3L193.6,337.5z"/>
		<path class="st5" d="M212.7,330.1h13v3.8h-4.4v23h-4.2v-23h-4.4V330.1z"/>
		<path class="st5" d="M239.5,341.4h5.8v3.8h-5.8v7.9h7.3v3.8h-11.5v-26.9h11.5v3.8h-7.3V341.4z"/>
		<path class="st5" d="M266,357c-0.2-0.7-0.4-1.1-0.4-3.3v-4.2c0-2.5-0.9-3.4-2.8-3.4h-1.4v10.9h-4.2v-26.9h6.4c4.4,0,6.2,2,6.2,6.2
			v2.1c0,2.8-0.9,4.6-2.8,5.5c2.1,0.9,2.8,2.9,2.8,5.7v4.1c0,1.3,0,2.3,0.5,3.3L266,357L266,357z M261.4,333.9v8.3h1.6
			c1.6,0,2.5-0.7,2.5-2.8v-2.7c0-1.9-0.7-2.8-2.1-2.8L261.4,333.9L261.4,333.9z"/>
		<path class="st5" d="M293.9,357h-4.3l-0.7-4.9h-5.2L283,357h-3.9l4.3-26.9h6.2L293.9,357z M284.3,348.4h4.1l-2-13.6L284.3,348.4z"
			/>
		<path class="st5" d="M315.8,347v3.6c0,4.3-2.1,6.8-6.3,6.8s-6.3-2.5-6.3-6.8v-14c0-4.3,2.1-6.8,6.3-6.8s6.3,2.5,6.3,6.8v2.6h-4
			v-2.9c0-1.9-0.9-2.7-2.2-2.7c-1.3,0-2.2,0.7-2.2,2.7v14.5c0,1.9,0.9,2.6,2.2,2.6s2.2-0.7,2.2-2.6V347H315.8z"/>
		<path class="st5" d="M324.8,330.1h13v3.8h-4.4v23h-4.2v-23h-4.4L324.8,330.1L324.8,330.1z"/>
		<path class="st5" d="M347.4,330.1h4.2V357h-4.2V330.1z"/>
		<path class="st5" d="M362,336.5c0-4.3,2.3-6.8,6.4-6.8s6.4,2.5,6.4,6.8v14c0,4.3-2.3,6.8-6.4,6.8s-6.4-2.5-6.4-6.8V336.5z
			 M366.2,350.8c0,1.9,0.9,2.7,2.2,2.7s2.2-0.7,2.2-2.7v-14.5c0-1.9-0.9-2.7-2.2-2.7c-1.3,0-2.2,0.7-2.2,2.7V350.8z"/>
		<path class="st5" d="M389,337.5V357h-3.8v-26.9h5.3l4.3,16.1v-16.1h3.7V357h-4.4L389,337.5z"/>
		<path class="st5" d="M415,329.8c4.1,0,6.2,2.5,6.2,6.8v0.9h-4v-1.1c0-1.9-0.8-2.7-2.1-2.7s-2.1,0.7-2.1,2.7
			c0,5.5,8.3,6.6,8.3,14.2c0,4.3-2.1,6.8-6.3,6.8s-6.3-2.5-6.3-6.8v-1.6h4v1.9c0,1.9,0.9,2.6,2.2,2.6s2.2-0.7,2.2-2.6
			c0-5.5-8.3-6.6-8.3-14.2C408.8,332.2,410.9,329.8,415,329.8z"/>
	</g>
</g>
</svg>
