<!-- Generator: Adobe Illustrator 19.1.0, SVG Export Plug-In . SVG Version: 6.00 Build 0)  -->
<svg xmlns:rdf="http://www.w3.org/1999/02/22-rdf-syntax-ns#" xmlns="http://www.w3.org/2000/svg" xml:space="preserve" viewBox="0 0 200 175" height="100%" width="100%" version="1.1" y="0px" x="0px" xmlns:cc="http://creativecommons.org/ns#" xmlns:dc="http://purl.org/dc/elements/1.1/"><metadata><rdf:RDF><cc:Work rdf:about=""><dc:format>image/svg+xml</dc:format><dc:type rdf:resource="http://purl.org/dc/dcmitype/StillImage"/><dc:title/></cc:Work></rdf:RDF></metadata><defs>
	</defs>
<style type="text/css">
	.st0{fill:#FFFFFF;}
	.st1{fill:none;}
	.st2{fill:#A4DBDD;}
	.st3{fill:#3FB48B;}
	.st4{fill:#78CAB8;}
	.st5{fill:#1F3C1F;}
</style>
<path d="M198.9972,72.827937h-16.25919c-7.07576-40.8738-42.68038-71.961967-85.586571-71.961967-18.743231,0-36.131538,5.946653-50.358322,16.108644-7.00049-10.538372-12.646034-5.495001-15.054806,2.032391-2.107675,6.548849-0.451642,11.065284,0.451641,12.796589-60.219217,45.841876-15.20535,106.588016-15.20535,106.588016,3.914251-0.3011,7.376849,0,9.936175,0.3011,15.807546,21.67891,41.400713,35.83044,70.305934,35.83044,47.949559,0,86.866229-38.91668,86.866229-86.866233v-0.451642l14.90426-14.377338z" style="fill:#ffffff;" class="st0"/><path style="fill:none;" class="st1" d="m151.04765,73.053763-0.15056,0.225815c0.0753-0.07525,0.15056-0.150544,0.3011-0.225815,0.52692-0.752739,1.12911-1.430207,1.80658-2.032403-1.27966,1.129109-1.95712,1.957131-1.95712,2.032403z"/><path style="fill:none;" class="st1" d="m118.90563,23.147082c0.0752-0.225826,0-0.451641-0.15054-0.526924-3.76371-3.010957-9.71035-1.881848-12.04385-1.204381v-1.731305c0-0.526912-0.52692-0.903282-1.05383-0.677467l-1.88186,0.828022c-0.37637-1.430207-1.35492-4.365892-3.23678-6.774664-1.053842-1.354935-2.408765-2.559316-4.064798-3.161512-0.225827-0.07525-0.37637,0-0.526913,0.150555-0.225827,0.301087-0.526924,1.129109-0.301098,2.709859,0.07525,0.828011,0.301098,1.806576,0.752739,3.010957,0.07525,0.150555,0.150543,0.301098,0.301098,0.451652,0.37637,0.37637,1.354924,1.129109,2.33349,1.505479-0.903283-0.150555-2.258218-0.301098-2.484045,0.225826-0.301098,0.828011,2.032403,5.193903,3.688427,5.269174,0.52692,0,1.05384-0.225814,1.58076-0.526912l-0.22583,0.301098-0.15054,0.677456-0.75274,3.537881c-0.15055,0.677467,0.67747,1.129109,1.20438,0.602196l3.23679-3.161512c0,0.602196,0.0752,1.204381,0.37637,1.656033,0.90329,1.354935,5.87137,1.204381,6.47356,0.451642,0.3011-0.451642-0.37637-1.430207-0.97856-2.107675,0,0,0-0.07525-0.0752-0.07525,0,0,0.0752,0.07525,0.0752,0.07525h0.0752c0.82802,0.602196,1.88186,0.978566,2.3335,1.129109,0.15055,0.07525,0.37637,0.07525,0.52692,0,0.60219-0.150543,1.05383-0.225815,1.50548-0.37637h0.0752c2.40877-0.82801,3.16151-1.731304,3.38732-2.258217z"/><path style="fill:none;" class="st1" d="m48.524422,148.70415c0.677467-0.97856,1.430206-1.95713,2.258217-2.86041-1.505478,1.65603-2.3335,2.86041-2.408772,2.93569l-0.150543,0.22582c0.150543-0.15055,0.225815-0.22582,0.301098-0.3011z"/><path style="fill:none;" class="st1" d="m95.721232,37.298595c27.249208,0.526924,46.820448,8.054327,58.487928,14.302067,12.79658,6.849936,19.1196,13.699871,19.19487,13.775143l0.15054,0.225826c0-0.07525-0.0752-0.150543-0.15054-0.225826-3.38734-3.613153-7.60267-6.62411-11.66748-9.33398-10.83946-7.07575-23.10912-12.043838-35.67989-14.979523-9.93616-2.408772-20.09816-3.537881-30.335428-3.763707,0.37637-1.656022,0.978566-3.537881,2.33349-4.441164,0.07525,0,0.07525-0.07525,0.150554-0.150543l-0.225826,0.07525c-1.20438,0.602184-1.95712,3.086228-2.258218,4.516435z"/><path style="fill:none;" class="st1" d="m156.61792,68.085675c4.81754-3.010957,10.76419-3.838979,16.33447-1.731305,0.0753,0,0.15054,0.07525,0.22581,0.07525l-0.30109-0.150543c-6.77466-2.70987-12.42021-0.752739-16.25919,1.806576z"/><path style="fill:none;" class="st1" d="m145.32682,35.793116,0,0c0.15054,0.150555,0.37637,0.301098,0.60218,0.37637,0.75275,0.150554,2.25823-1.430207,2.18296-1.806577,0-0.225815-0.52692-0.301098-0.97856-0.376369,0.45164-0.07525,0.90328-0.225826,1.05383-0.37637,0.0752,0,0.15055-0.07525,0.15055-0.150543,0.52692-0.828022,0.75274-1.354935,0.82801-1.731305,0.0753-0.301098,0-0.526924,0-0.677467,0-0.07525-0.15055-0.150544-0.22582-0.150544-0.22582,0-0.45164,0.07525-0.67747,0.150544-1.80657,0.526913-3.08623,2.333489-3.53788,3.161511l-0.52691-0.526924c-0.15055-0.150543-0.45165-0.150543-0.52692,0.150555l-0.3011,0.82801c-0.75274-0.451641-2.78513-1.505478-4.66699-1.129108-0.22582,0.07525-0.45164,0.07525-0.67746,0.225815-0.0753,0-0.15055,0.150554-0.15055,0.225826,0,0.301098,0.3011,0.903294,1.88185,1.731304,0.0752,0,0.15055,0.07525,0.22582,0.07525,0.22583,0,0.67747,0,1.12911-0.225826-0.3011,0.225826-0.75274,0.526924-0.67747,0.828022,0.15056,0.37637,2.25822,1.053837,2.78515,0.526913,0.15054-0.150543,0.22582-0.301098,0.30109-0.526913v0.07525l0.97857,1.58075c0.15054,0.301098,0.52691,0.150555,0.52691-0.150543v-0.752739l0.3011-1.354935z"/><path style="fill:none;" class="st1" d="m127.26106,19.533929c-0.3011,0.37637,0.22581,3.161512,1.05383,3.46261,0.22582,0.07525,0.60219,0.07525,0.90329,0l-0.15055,0.150543-1.20439,2.182946c-0.22581,0.376369,0.15056,0.752739,0.52693,0.526913l2.25821-1.129109c-0.0753,0.301098-0.15054,0.602196-0.0753,0.903294,0.3011,0.903282,3.01096,1.656021,3.38733,1.354935,0.3011-0.150555,0-0.978566-0.22581-1.50549,0.30108,0.526924,0.90328,0.978566,1.1291,1.204392,0.0753,0.07525,0.22582,0.150543,0.3011,0.150543,2.25822,0.225826,3.01096-0.301098,3.23679-0.526913,0.0752-0.07525,0.0752-0.225826,0-0.301098-1.50549-2.258217-4.96809-2.70987-6.32303-2.785142l0.3011-0.903282c0.0753-0.301098-0.15055-0.602196-0.45164-0.526924l-1.12912,0.150554v-0.978565c-0.0753-1.656033-0.45164-4.29062-2.25822-5.645555-0.0753-0.07525-0.22581-0.07525-0.3011,0-0.30109,0.225826-0.82801,0.903293-0.82801,3.161511,0,0.07525,0,0.225826,0.0752,0.301098,0.15056,0.301098,0.52693,0.828011,0.97857,1.20438-0.3011-0.150543-0.67747-0.376369-0.97857-0.376369,0-0.225826-0.15054-0.150543-0.22581-0.07525z"/><path style="fill:#a4dbdd;" class="st2" d="m178.37212,110.38967c-15.73228,32.29256-46.44407,55.92861-83.027257,61.95053-9.936176-0.15055-16.861383-3.08624-25.66845-6.39829,9.258708,3.53788,16.786112,6.39829,27.324472,6.39829,39.217775,0,72.187795-26.647,81.822875-62.77854,0,0-15.657,36.58318-55.77805,43.58366,15.80754-2.78513,25.21679-11.44166,34.55077-19.04433,12.1944-9.93617,19.04433-20.77562,20.77564-23.71132z"/><path style="fill:#3fb48b;" class="st3" d="m51.98702,159.54361c-0.07525-0.0753-0.150544-0.0753-0.225815-0.15054,0.150543,0.0753,0.225815,0.0753,0.225815,0.15054z"/><path style="fill:#3fb48b;" class="st3" d="m55.675455,161.72656c0.301087,0.15055,0.677457,0.37637,0.978554,0.52692-0.301097-0.15055-0.602184-0.37637-0.978554-0.52692z"/><path style="fill:#3fb48b;" class="st3" d="m53.567781,160.52218c-0.150555-0.0753-0.37637-0.22583-0.526924-0.3011,0.225826,0.0752,0.376369,0.15054,0.526924,0.3011z"/><path style="fill:#3fb48b;" class="st3" d="m55.223803,161.42546c-0.301098-0.15054-0.526913-0.3011-0.828011-0.45164,0.225826,0.15054,0.526913,0.3011,0.828011,0.45164z"/><path style="fill:#3fb48b;" class="st3" d="m117.62598,152.01621c0.0753,0,0.22581,0,0.3011-0.0753-0.15056,0.0753-0.22583,0.0753-0.3011,0.0753z"/><path style="fill:#3fb48b;" class="st3" d="m119.65837,151.71511h0.15055-0.15055z"/><path style="fill:#3fb48b;" class="st3" d="m113.4859,152.54313h0.37637-0.37637z"/><path style="fill:#3fb48b;" class="st3" d="m115.5183,152.31731c0.15055,0,0.22583,0,0.37637-0.0753-0.0752,0.0753-0.22582,0.0753-0.37637,0.0753z"/><path style="fill:#78cab8;" class="st4" d="m178.37212,110.38967c-1.73131,2.9357-8.58124,13.69987-20.77564,23.71132-20.2487,18.96906-47.34736,30.56125-77.306424,30.56125-8.129599,0-15.958089-0.90328-23.560775-2.48404,0.07525,0.0752,0.150555,0.0752,0.225826,0.15055,0.37637,0.22582,0.75274,0.37637,1.053838,0.60219,0.225826,0.15055,0.526924,0.22582,0.752739,0.37638,0.301098,0.15054,0.602196,0.30109,0.828011,0.45164,0.451652,0.22582,0.828022,0.37637,1.279663,0.60218,0.150543,0.0753,0.301098,0.15056,0.451641,0.22583,0.677468,0.3011,1.279664,0.6022,1.957131,0.90329h0.07525c0.602196,0.30109,1.204381,0.52692,1.881848,0.75274,0.602196,0.22582,1.129109,0.45165,1.731305,0.67747,0.07525,0,0.07525,0,0.150543,0.0753,8.807067,3.31206,18.29159,5.1939,28.227765,5.41973,36.583179-6.0972,67.294979-29.73324,83.027259-62.0258z"/><path style="fill:#78cab8;" class="st4" d="m56.654009,162.25348c0.07525,0.0752,0.150555,0.0752,0.225827,0.15055-0.07525-0.0752-0.150555-0.15055-0.225827-0.15055z"/><path style="fill:#78cab8;" class="st4" d="m67.041826,166.99574c-0.07525,0-0.07525,0-0.150543-0.0752,0.07525,0,0.150543,0.0752,0.150543,0.0752z"/><path style="fill:#78cab8;" class="st4" d="m65.159978,166.243c-0.602196-0.22582-1.279663-0.52692-1.881848-0.75274,0.677468,0.22582,1.279652,0.52692,1.881848,0.75274z"/><path style="fill:#a4dbdd;" class="st2" d="m95.570678,12.759265c-0.225815-1.58075,0.07525-2.333489,0.301098-2.709859,0.150554-0.150555,0.301098-0.225826,0.526924-0.150555,1.656022,0.602196,3.010958,1.806577,4.0648,3.161512,3.83897,1.053837,8.20487,2.333489,12.26966,3.236783,5.04336,1.129109,10.38782,2.709859,14.90427,3.161512,0.30108,0.07525,0.67746,0.225814,0.97855,0.376369-0.45164-0.376369-0.82801-0.903294-0.97855-1.204392-0.0753-0.07525-0.0753-0.225815-0.0753-0.301086,0-2.258229,0.52692-2.935697,0.82802-3.161512,0.0753-0.07525,0.22581-0.07525,0.3011,0,1.80657,1.354935,2.18294,3.989523,2.25821,5.645544,2.93569,1.50549,6.17247,3.46261,9.18343,5.193914,2.86041,1.656033,5.72083,3.537881,8.35543,5.04336,0.22581-0.07525,0.45164-0.07525,0.67745-0.150544,0.0752,0,0.15056,0.07525,0.22583,0.150544,0.0752,0.150543,0.0752,0.301098,0,0.677467,1.65603,3.236783,8.05433,9.032882,12.19439,13.775143,7.5274,8.581241,14.37734,18.216318,19.04433,28.604135-6.62406-40.346886-41.55122-71.133956-83.704673-71.133956-12.11911,0-23.636036,2.559315-34.023852,7.151034,0.526913,1.354935-0.752739,4.140066-0.978566,5.193903-0.225826,0.903293-0.301098,1.806576-0.451641,2.70987,4.892805-0.225826,10.011447-1.656033,15.280621-2.559316,5.118631-0.903294,10.688915-2.032402,16.033372-2.032402,0.978555,0,1.806577-0.75274,2.785131-0.677468z"/><path style="fill:#78cab8;" class="st4" d="m110.77604,24.502017c0.0752,0.07525,0.0752,0.07525,0.0752,0.07525s0-0.07525-0.0752-0.07525z"/><path style="fill:#78cab8;" class="st4" d="m149.31634,31.728322c-0.0753,0.37637-0.3011,0.978566-0.82801,1.731305-0.0753,0.07525-0.15055,0.150543-0.15055,0.150543-0.22582,0.07525-0.67747,0.301098-1.05384,0.37637,0.37637,0.07525,0.90329,0.150554,0.97856,0.376369,0,0.37637-1.50547,1.957131-2.18294,1.806577-0.22583-0.07525-0.45164-0.225815-0.6022-0.451642v0.07525,2.408773c15.05481,9.108153,27.2492,21.227274,35.15298,37.03482,0,0,0.0752-0.07525,0.22582-0.150555-0.0753-0.301086-0.0753-0.677467-0.15055-0.978554-6.32301-16.936654-17.31303-31.615091-31.38927-42.379277z"/><path style="fill:#78cab8;" class="st4" d="m105.58213,18.931733c0.52692-0.225815,1.05383,0.150555,1.05383,0.677468v1.731305c2.3335-0.602196,8.35542-1.806577,12.04386,1.20438,0.15054,0.150555,0.22581,0.37637,0.15054,0.526924-0.22582,0.526913-0.97857,1.430207-3.53788,2.182946,7.97904,2.634587,15.80754,5.87137,23.41022,8.129588,1.88186-0.37637,3.91425,0.677467,4.66699,1.12912l0.3011-0.828022c0.0753-0.225815,0.37637-0.301098,0.52692-0.150543l0.52691,0.526912c0.52693-0.82801,1.80658-2.634587,3.53788-3.1615-5.41972-3.989533-11.29109-7.452131-17.53885-10.237273v0.978565l1.12911-0.150554c0.3011,0,0.52693,0.301098,0.45166,0.526924l-0.3011,0.903283c1.35493,0.07525,4.81753,0.526924,6.32301,2.785141,0.0753,0.07525,0.0753,0.225827,0,0.301098-0.22582,0.301098-0.97855,0.75274-3.23678,0.526913-0.0753,0-0.22582-0.07525-0.30109-0.150543-0.3011-0.225826-0.82802-0.677468-1.12912-1.204381,0.22583,0.451642,0.52692,1.279653,0.22583,1.505479-0.37637,0.301098-3.08624-0.451641-3.38733-1.354935-0.0753-0.225827,0-0.526913,0.0752-0.903283l-2.25822,1.129109c-0.37638,0.150543-0.75275-0.225826-0.52692-0.526924l1.20438-2.182946,0.15055-0.150543c-0.3011,0.07525-0.67747,0.07525-0.90329,0-0.90328-0.37637-1.43021-3.08624-1.05384-3.46261,0.0753-0.07525,0.22583-0.07525,0.37637-0.07525-8.50596-3.387337-17.61412-5.645555-27.09865-6.398294,1.88185,2.408772,2.86042,5.344457,3.23679,6.774664l1.88184-0.602196z"/><path style="fill:#78cab8;" class="st4" d="m101.36679,23.598723,0.15054-0.677467,0.22583-0.301098c-0.52692,0.301098-1.05384,0.526924-1.58076,0.526924-1.656026-0.150543-3.989526-4.516447-3.688428-5.269186,0.225826-0.526913,1.58075-0.376369,2.484046-0.225815-0.978568-0.376369-1.957133-1.129109-2.333503-1.50549-0.150543-0.150543-0.225815-0.301086-0.301087-0.451641-0.451652-1.279652-0.677467-2.258217-0.75275-3.010957-0.978554,0-1.881848-0.07525-2.860402-0.07525-10.990013,0-21.453101,1.881848-31.238722,5.344457-0.225826,1.806576-0.37637,3.53787-0.903294,5.269174-0.903282,2.860414-2.559315,5.645555-4.742261,7.903773,1.129108-0.07525,2.333489-0.07525,3.462609,0.07525,11.516925-3.989522,24.087688-7.602675,37.41119-7.602675,1.58075,0.07525,3.161498-0.07525,4.666992,0z"/><path style="fill:#a4dbdd;" class="st2" d="m54.245249,14.565841c-2.484044,1.430207-4.817545,3.010957-7.151034,4.66699,0.752739,1.354935,1.279652,2.785142,1.731305,3.914251,1.58075-2.935685,3.312054-6.021925,5.419729-8.581241z"/><path d="m117.92708,152.01621c-0.0752,0-0.22583,0-0.3011,0.0752-0.52693,0.0753-1.12911,0.15055-1.65603,0.22582-0.15055,0-1.50548,0.15055-2.0324,0.22582-0.15055,0-1.7313,0.15055-2.40877,0.22582h-0.0753c-0.75274,0.0753-1.43021,0.0753-2.18294,0.15055,0,0-1.58077,0.0753-2.33351,0.0753h-2.40877c-0.30108,0-4.51643-0.15055-4.591704-0.15055-13.097689-0.75274-28.227767-4.36589-42.078182-13.54932-2.935696,2.25822-5.419729,4.74227-7.075762,6.62412-0.828011,0.97855-2.258218,2.86041-2.258218,2.86041-0.07525,0.0752-0.451652,0.60218-0.451652,0.60218s-0.37637-0.37637-0.451641-0.45164c-4.742262-5.11863-10.764187-8.50597-17.388296-10.23726-0.451641-0.0753-0.828011-0.22583-1.279664-0.3011,1.204392,1.58075,2.408773,3.08623,3.688436,4.59172,0.37637,0.45164,0.828011,0.90328,1.20438,1.43021,0.07525,0.15054,0.225815,0.22581,0.301098,0.37637,0.150544,0.22581,0.37637,0.37637,0.526913,0.60218,3.08624,3.31207,6.323023,6.32303,9.860904,9.10817,2.258218,1.80657,4.66699,3.46259,7.151022,5.04336,0.07525,0.0753,0.150555,0.0753,0.225827,0.15054,0.376369,0.22583,0.677467,0.45164,1.053837,0.67747,0.150543,0.0753,0.376369,0.22582,0.526913,0.3011,0.225826,0.15054,0.526924,0.30109,0.75275,0.45164,0.301087,0.15054,0.526913,0.30109,0.828011,0.45164,0.150543,0.0753,0.301098,0.15055,0.451641,0.22582,0.301098,0.15055,0.677468,0.37637,0.978566,0.52692,7.602675,1.58076,15.506448,2.48404,23.560764,2.48404,29.883787,0,57.057717-11.5922,77.306427-30.56125-9.33398,7.60267-21.90474,14.7537-37.71229,17.53885,0.15056-0.0752-1.12911,0.15055-1.73129,0.22582z" style="fill:#3fb48b;" class="st3"/><path d="m180.70561,75.086154s-10.61363-24.16296-35.45406-38.088657v0.07525,0.752739c0,0.301098-0.37637,0.376369-0.52693,0.150543l-0.97856-1.58075v-0.07525c-0.0753,0.225815-0.15054,0.37637-0.30109,0.526913-0.52692,0.451641-2.6346-0.225826-2.78514-0.526913-0.0753-0.225826,0.3011-0.602196,0.67747-0.828022-0.37637,0.150554-0.9033,0.225826-1.12911,0.225826-0.0753,0-0.15056,0-0.22583-0.07525-1.58075-0.828022-1.88185-1.430207-1.88185-1.731304,0-0.07525,0-0.150555,0.15055-0.225827,0.22582-0.07525,0.45164-0.150543,0.67747-0.225815-7.30158-3.688435-15.20535-6.473566-23.41023-8.129599h-0.0752c-0.45166,0.150543-0.97857,0.301098-1.50548,0.37637h-0.52693c-0.45164-0.150544-1.50548-0.526913-2.33349-1.129109h-0.0752c0.6022,0.677467,1.35494,1.731305,0.97857,2.107674-0.52691,0.677468-5.495,0.903283-6.47357-0.451641-0.3011-0.451653-0.37637-0.978566-0.37637-1.656033l-3.23678,3.161511c-0.52691,0.526913-1.35494,0.07525-1.20438-0.602196l0.75274-3.537881c-1.505484-0.07525-3.086244-0.150543-4.666994-0.150543-13.323501,0-25.969536,2.785142-37.486461,7.828501,2.709859,0.37637,5.419729,1.354924,7.903773,2.484033,1.430206,0.602196,2.107663,1.12912,3.462598,1.053837,2.032402-0.150543,4.064805-0.677456,6.172468-0.903282,4.591718-0.451642,9.183436-0.602196,13.775154-0.677468,2.559316,0,4.742262-2.032403,7.376849-1.505478,0.07525,0,1.430211,0.451641,1.430211,0.451641l-1.129113,0.526924c-0.07525,0.07525-0.07525,0.07525-0.150544,0.150543-1.354935,0.903283-1.957131,2.785142-2.258228,4.441164,10.162007,0.225826,20.323997,1.354935,30.184887,3.763707,12.57076,3.010957,24.84043,7.903773,35.67989,14.979524,4.14007,2.70987,8.35542,5.720827,11.66748,9.333979,0.0752,0.07525,1.4302,1.656033,1.4302,1.656033s-1.88184-0.677467-1.95713-0.752739c-5.57027-2.107674-11.51692-1.279663-16.33446,1.731305-1.50547,0.978554-2.70987,2.032391-3.61315,2.860413-0.60219,0.602185-2.10767,2.408761-2.10767,2.408761s-0.37637-0.150543-0.45164-0.150543c-3.08624-1.354935-6.24776-2.559316-9.55981-3.537881,0.75274,1.731304,1.35494,3.613152,1.88185,5.419729h-14.22671l32.29256,30.410707,32.4431-30.410707h-12.49549z" style="fill:#3fb48b;" class="st3"/><path style="fill:#1f3c1f;" class="st5" d="M153.68223,52.503956c-11.59219-6.247752-31.23872-13.775155-58.563193-14.151524h-0.602185l0.07525-0.602185c0.07525-0.376369,0.526913-3.236783,1.806576-4.817544-0.903294,0.150554-2.182946,0.526924-4.064805,1.430206l-0.07525,0.07525h-0.150543c-0.150555,0-16.259187,0-22.281112,1.806577l-0.225826,0.07525-0.150544-0.07525c-0.07525-0.07525-9.635077-5.193903-15.280632-3.53787l-2.33349,0.677456,1.881848-1.58075c0.07525-0.07525,6.172469-5.269185,6.398295-12.344936,0.07525-2.182946,1.58075-8.054328,1.731305-8.656512,0.07525-0.150555-0.07525-0.301098-0.07525-0.301098,0-0.07525-0.150555-0.07525-0.225827-0.07525-1.580761,0.225815-5.946653,2.032391-12.344936,14.452611l-0.602196,1.129108-0.37637-1.20438c-0.07525-0.150555-3.838979-12.420219-10.16199-11.516926-3.914251,0.526913-5.495012,9.032882-5.495012,12.194382,0,3.010968,2.032403,6.17248,2.032403,6.17248l0.225826,0.376369-0.301098,0.301087c-0.150554,0.150554-4.215348,3.613164-5.645554,4.66699-4.817533,3.613164-13.775147,11.516925-19.7970674,24.012416-7.6026765,15.807546-8.20486886,33.873307-1.8065768,53.519837,0.075272,0.30109,0.1505479,0.52691,0.3010957,0.82801,0.4516447,1.05383,0.8280143,2.0324,1.2043851,3.01097,0.07527,0.15054,0.150548,0.37637,0.225822,0.52691,0.8280138,2.0324,1.6560274,4.06479,2.4087684,6.02192,0.07527,0.22582,0.225821,0.45164,0.376369,0.75274,1.731304,3.61316,4.064798,7.97905,6.097191,10.53836h1.430207c5.871381,0,19.194883,1.27967,28.679406,11.51693,0.978566-1.27965,3.914251-4.89281,7.903773-8.28014,6.548838-5.41973,13.097687-7.75322,18.969057-6.77467,1.053837-2.18294,6.925207-15.43117-3.08624-27.02337l-0.07525-0.0753c-0.07525-0.0753-1.430206-2.55932-1.430206-5.7961,0-2.86041-1.95712-6.54884-5.419729-9.936175-3.312055-3.312055-10.387817-8.807055-10.463089-8.882327l-0.451641-0.37637,0.451641-0.376369c0.07525-0.07525,1.731305-1.50549,3.46261-1.731305-0.903294-0.526924-2.408773-0.903294-4.66699-0.526924h-0.150555l-0.150543-0.07525c-0.150555-0.07525-4.516447-2.785142-8.656512-8.204871l-0.225826-0.301098,0.225826-0.301086c0.07525-0.150555,8.731784-11.742752,26.948101-12.721318,9.559795-0.526913,16.183916,3.161512,20.098166,6.398295,3.462598,2.860413,5.344446,5.720827,5.946642,6.774664,1.580752-0.526924,7.677945-2.559316,16.183925-3.312055,9.03288-0.828022,22.80802-0.451653,37.18536,6.097197,1.50549-1.806577,9.48453-10.613643,20.62509-7.527404-2.70987-2.559315-8.4307-7.452131-17.53885-12.269664zm-94.920546-40.798528c0.376369-0.301098,0.828011-0.526913,1.279663-0.752739-0.451652,0.150543-0.828022,0.451641-1.279663,0.752739-0.37637,0.301098-0.752739,0.602196-1.129109,0.978565,0.37637-0.376369,0.752739-0.677467,1.129109-0.978565zm-11.441654,67.069162c-33.120568-20.926188-20.625079-35.679897-20.625079-35.679897-8.280142,16.033372,20.625079,35.679897,20.625079,35.679897zm57.50936-35.755169c34.17441,1.881848,44.3364,23.560776,44.3364,23.560776-13.77515-20.399264-44.3364-23.560776-44.3364-23.560776z"/><path style="fill:#1f3c1f;" class="st5" d="m11.33905,124.69174c0,0.0752,0.07527,0.15055,0.07527,0.22582-0.828015-1.95713-1.6560284-3.98952-2.4087684-6.02192,0.75274,1.80657,1.4302064,3.53788,2.3334944,5.7961z"/><path style="fill:#78cab8;" class="st4" d="m47.32003,78.77459s-28.905221-19.571253-20.625079-35.679897c0.07525-0.07525-12.495489,14.678437,20.625079,35.679897z"/><path style="fill:#78cab8;" class="st4" d="m149.16579,66.655468s-10.16199-21.678916-44.3364-23.560775c0-0.07525,30.56125,3.08624,44.3364,23.560775z"/><circle style="fill:#1f3c1f;" transform="matrix(0.75274025,0,0,0.75274025,-64.160796,-33.534263)" cx="244.60001" cy="219.3" r="3.5999999" class="st5"/><circle style="fill:#1f3c1f;" transform="matrix(0.75274025,0,0,0.75274025,-64.160796,-33.534263)" cx="278.10001" cy="206.5" r="5.5" class="st5"/><path d="m128.76653,116.41159s-0.37636,0.37637-0.22582,0.75274c0.15055,0.37637-0.3011,1.05384-0.15054,1.43021,0.15054,0.37637-0.67747,1.05384-0.45166,1.12911,0.22583,0.0752,2.55933-2.70986,2.55933-4.14007,0.0752-1.58076-1.73131,0.82801-1.73131,0.82801z" style="fill:#1f3c1f;" class="st5"/><path d="m129.89564,114.52975s-1.88184-0.15056-2.78514,0.45164c-0.90328,0.60219-2.86041,1.50548-2.48404,1.88185s3.53788,0.15055,4.74226-0.60219c1.12912-0.75274,0.52692-1.7313,0.52692-1.7313z" style="fill:#1f3c1f;" class="st5"/><path d="m130.34728,113.92755s-0.15054-2.55931-2.55931-2.03239c0,0,0.3011,0.52691,0.37637,0.67746,0,0.22582,0.22583,0.37637,0.45164,0.90329,0.22583,0.52691-0.0752,1.12911,1.20439,1.05384,1.35493-0.0752,0.52691-0.6022,0.52691-0.6022z" style="fill:#1f3c1f;" class="st5"/><path d="m131.85276,107.83036s0.67747,2.70986-1.35492,6.54883c0,0-0.0753-1.05382-0.22583-1.35492-0.15054-0.3011-0.15054-2.78514,0.37637-3.01097,0.52692-0.22582,0.52692-2.55931,1.20438-2.18294z" style="fill:#1f3c1f;" class="st5"/><path d="m129.89564,115.65886,2.78515,0.90329s1.20438-0.67747,0.52691-1.27966c-0.67747-0.6022-2.93569-1.88185-2.93569-1.88185l-1.12911,1.58075,0.75274,0.67747z" style="fill:#1f3c1f;" class="st5"/><rect style="fill:#1f3c1f;" transform="matrix(-0.90052193,-0.43481059,0.43481059,-0.90052193,0,0)" height="0.30108878" width="2.0323491" y="-46.809677" x="-171.94577" class="st5"/><path d="m119.50783,138.16579s0.52692-0.0752,0.67746-0.52692c0.15055-0.45164,0.90329-0.82801,0.97857-1.20438,0.15054-0.37637,1.20438-0.52693,1.05384-0.75274-0.15056-0.22583-3.91425,0.90328-4.81755,2.10767-0.97856,1.35493,2.10768,0.37637,2.10768,0.37637z" style="fill:#1f3c1f;" class="st5"/><path d="m117.32488,139.06908s1.58075,1.27966,2.78514,1.27966c1.20438,0,3.4626,0.45164,3.38733-0.15056-0.15054-0.52691-3.08623-2.25821-4.59172-2.33348-1.50548,0-1.58075,1.20438-1.58075,1.20438z" style="fill:#1f3c1f;" class="st5"/><path d="m116.57214,139.2949s-1.4302,2.33349,0.97857,3.38733c0,0,0-0.67747,0.15054-0.82801,0.0752-0.15056,0-0.45164,0.15054-1.12911,0.15056-0.67747,0.75275-0.90329-0.45164-1.65603-1.20438-0.67747-0.82801,0.22582-0.82801,0.22582z" style="fill:#1f3c1f;" class="st5"/><path d="m111.52878,143.88662s1.05384-2.86041,5.19391-5.11864c0,0-0.52692,0.97856-0.60219,1.35493-0.0752,0.37637-1.58076,2.55932-2.18295,2.48405-0.60219-0.0752-2.0324,2.0324-2.40877,1.27966z" style="fill:#1f3c1f;" class="st5"/><path d="m118.00235,138.09051-1.95713-2.55931s-1.50548-0.15055-1.27965,0.82802c0.22581,0.97855,1.50547,3.38732,1.50547,3.38732l1.95712-0.75274-0.22581-0.90329z" style="fill:#1f3c1f;" class="st5"/><rect style="fill:#1f3c1f;" transform="matrix(0.50082732,0.86554722,-0.86554722,0.50082732,0,0)" height="0.30107966" width="2.1075578" y="-32.067883" x="173.52821" class="st5"/><path style="fill:#1f3c1f;" class="st5" d="m113.1848,105.49686s4.44118,2.25822,6.54885,9.78563l0.3011-1.58075s-1.7313-5.64556-6.69939-8.65652l-0.15056,0.45164z"/><path style="fill:#1f3c1f;" class="st5" d="m118.37872,96.16289s5.1939,4.66698,0.82801,21.152l0.82802-1.73131s3.98952-13.69987-0.60219-19.87234l-1.05384,0.45165z"/><path style="fill:#1f3c1f;" class="st5" d="m128.0138,128.98236s-0.67747-4.44117-16.2592-9.03288c-12.043842-3.53789-6.84994-11.44166-18.969053-15.20536-8.355414-2.55931,12.721313-0.60219,20.098173,4.14007,3.68842,2.3335,5.72082,5.495,5.94664,6.0972,0.3011,0.60219,2.18295,0.52692,5.11863,1.95713,5.87138,2.78513,5.57028,5.11863,5.34446,8.9576,0,2.55932-1.27965,3.08624-1.27965,3.08624z"/><circle style="fill:#1f3c1f;" transform="matrix(0.75274025,0,0,0.75274025,-64.160796,-33.534263)" cx="266.20001" cy="216.2" r="3" class="st5"/><circle style="fill:#1f3c1f;" transform="matrix(0.75274025,0,0,0.75274025,-64.160796,-33.534263)" cx="261.39999" cy="221.89999" r="1.7" class="st5"/><path style="fill:#1f3c1f;" class="st5" d="m132.9066,133.79989s2.55932,2.55933,3.68844,2.0324l-0.22583,0.75274s-3.08624-1.20438-3.68842-2.55931c-0.67747-1.50548,0.22581-0.22583,0.22581-0.22583z"/><path style="fill:#1f3c1f;" class="st5" d="m136.36921,129.50928s1.58075,3.98952-0.0752,8.05432c-0.6022,1.4302-2.78514,3.53788-1.65603,1.7313,1.58075-2.40877,2.93568-6.24775,0.75274-10.68891"/><circle style="fill:#1f3c1f;" transform="matrix(0.75274025,0,0,0.75274025,-64.160796,-33.534263)" cx="196.39999" cy="222.2" r="3" class="st5"/><circle style="fill:#1f3c1f;" transform="matrix(0.75274025,0,0,0.75274025,-64.160796,-33.534263)" cx="193" cy="228.89999" r="1.7" class="st5"/><path style="fill:#1f3c1f;" class="st5" d="m81.494437,138.9938s3.08624,1.88185,4.064805,1.05384v0.82801s-3.312066-0.37637-4.215348-1.58075c-0.978566-1.27966,0.150543-0.3011,0.150543-0.3011z"/><path style="fill:#1f3c1f;" class="st5" d="m83.903209,134.02572s2.559316,3.53788,1.881848,7.8285c-0.225815,1.50548-1.881848,4.06479-1.20438,2.0324,0.903282-2.70987,1.354935-6.77466-1.881848-10.53837"/><path style="fill:#1f3c1f;" class="st5" d="m128.76653,115.05666s-6.17246-2.93568-9.71034,2.9357l0.15054-1.65604s3.38734-4.14007,9.40925-1.7313l0.15055,0.45164z"/><circle style="fill:#1f3c1f;" transform="matrix(0.75274025,0,0,0.75274025,-64.160796,-33.534263)" cx="283" cy="218" r="2.3" class="st5"/><circle style="fill:#1f3c1f;" transform="matrix(0.75274025,0,0,0.75274025,-64.160796,-33.534263)" cx="268.20001" cy="202" r="3" class="st5"/><path style="fill:#1f3c1f;" class="st5" d="m127.93851,106.09906s-6.24774,6.32301-8.20486,10.46309l0.15055-1.50549s4.51644-7.15103,8.05431-10.01144"/><path style="fill:#1f3c1f;" class="st5" d="m125.15338,96.46398s-1.20439,14.90426-7.90377,22.8833c-0.0752,0,7.5274-5.64554,7.90377-22.8833z"/><path style="fill:#1f3c1f;" class="st5" d="m149.54217,129.58455s0.37637,3.98953-4.96809,8.12959c0,0,3.4626-3.68842,4.96809-8.12959z"/><path style="fill:#1f3c1f;" class="st5" d="m137.72414,118.51927s8.65652,7.5274-1.05383,19.87234c0-0.0752,8.35541-11.81802,1.05383-19.87234z"/><path style="fill:#1f3c1f;" class="st5" d="m120.41112,85.549242s3.23678,9.860908,0.37637,16.861388c0-0.0753,1.27965-8.73179-0.37637-16.861388z"/><path d="m129.21818,125.9714-1.73131,0.90328c3.23678,9.78562-3.91425,15.88282-7.45212,18.21632-2.10767-6.84993,1.20438-13.54933,1.20438-13.54933h-1.27966c-0.90328,4.96809-1.20438,8.28015-1.20438,10.53836-0.67747-1.88185-1.27967-2.93568-1.27967-2.93568s-4.44116-7.60268-0.15054,1.20439c0.75274,1.58075,1.27966,2.86041,1.58075,4.21534,0.0752,0.67746,0.22583,1.05383,0.22583,1.12912-0.6022,0.37637-1.05384,0.52691-1.05384,0.52691l-0.45164,0.3011c0.22581,0,1.35493-0.22583,1.58075-0.3011,0.22583,0,0.45164-0.0753,0.75274-0.15054,0.0752,0,0.22582,0,0.3011-0.0753h0.0752c13.47405-9.48454,8.28014-18.21632,8.88233-20.0229z" style="fill:#1f3c1f;" class="st5"/><path d="m129.82037,143.51024c8.58124-4.96808,14.90425-13.39877,16.03336-20.47452-2.25821,6.77465-8.35541,14.97952-16.48501,19.72178-1.43021,0.82802-2.55932,1.50549-3.4626,2.10767,1.05384-0.30109,2.10768-0.52691,3.16151-0.82801,0.22582-0.22582,0.45164-0.37637,0.75274-0.52692z" style="fill:#1f3c1f;" class="st5"/><path d="m101.51733,132.29441s0.6022,0.82802,1.50548,0.67747c0.82802-0.15054,2.10768,0.82801,2.93569,0.67747,0.75274-0.15055,2.0324,1.7313,2.25823,1.20438,0.30108-0.52692-5.04336-5.94664-8.05433-6.47357-3.010961-0.52691,1.35493,3.91425,1.35493,3.91425z" style="fill:#1f3c1f;" class="st5"/><path d="m97.97945,129.434s-0.752739,3.91425,0.301098,5.94665c0.97857,2.0324,2.333502,6.3983,3.236782,5.72083,0.82801-0.67747,1.12911-7.37686-0.0752-10.08672-1.20439-2.70987-3.462607-1.58076-3.462607-1.58076z" style="fill:#1f3c1f;" class="st5"/><path d="m96.850341,128.22962s-5.344457-0.37637-4.968087,4.74226c0,0,1.129108-0.52691,1.580761-0.52691,0.376369,0,0.828011-0.37637,2.032391-0.75274,1.204392-0.37637,2.258229,0.37637,2.484044-2.25823,0.225826-2.70986-1.129109-1.20438-1.129109-1.20438z" style="fill:#1f3c1f;" class="st5"/><path d="m84.430133,123.56263s5.87137-0.82801,13.398774,4.44116c0,0-2.258229-0.0752-2.785142,0.15056-0.602196,0.22581-5.87137-0.37637-6.24774-1.50548-0.376369-1.05384-5.269186-1.65603-4.365892-3.08624z" style="fill:#1f3c1f;" class="st5"/><path d="m100.31295,129.58455,2.70986-5.72082s-1.12911-2.70987-2.55931-1.50548c-1.430212,1.27965-4.591724,5.57027-4.591724,5.57027l3.010972,2.70987,1.430202-1.05384z" style="fill:#1f3c1f;" class="st5"/><rect style="fill:#1f3c1f;" transform="matrix(-0.5391899,0.84218422,-0.84218422,-0.5391899,0,0)" height="0.52692807" width="4.1401491" y="-152.62184" x="45.208981" class="st5"/><path d="m103.02281,143.43497c10.38782-5.495,17.23776-17.23775,17.38831-28.22776-1.7313,10.16199-8.35542,21.60365-18.21632,26.79755-4.140078,2.18295-8.50597,3.46261-12.871862,3.83898,1.656033,0.3011,3.236783,0.6022,4.817544,0.82801,3.086229-0.67747,6.021918-1.7313,8.882328-3.23678z" style="fill:#1f3c1f;" class="st5"/><path d="m99.560208,125.9714c-3.387334,7.15103-9.635074,14.22678-17.237749,18.21631,0.752739,0.22582,1.505478,0.37637,2.258218,0.60219,7.226305-4.29062,12.796589-11.21582,14.979531-18.8185z" style="fill:#1f3c1f;" class="st5"/><circle style="fill:#1f3c1f;" transform="matrix(0.75274025,0,0,0.75274025,-64.160796,-33.534263)" cx="244" cy="158.60001" r="3.7" class="st5"/><circle style="fill:#1f3c1f;" transform="matrix(0.75274025,0,0,0.75274025,-64.160796,-33.534263)" cx="255.8" cy="183.7" r="4" class="st5"/><circle style="fill:#1f3c1f;" transform="matrix(0.75274025,0,0,0.75274025,-64.160796,-33.534263)" cx="234.7" cy="182.89999" r="4.0999999" class="st5"/><circle style="fill:#1f3c1f;" transform="matrix(0.75274025,0,0,0.75274025,-64.160796,-33.534263)" cx="244.3" cy="181.60001" r="4.6999998" class="st5"/><circle style="fill:#1f3c1f;" transform="matrix(0.75274025,0,0,0.75274025,-64.160796,-33.534263)" cx="239.89999" cy="170.7" r="4" class="st5"/><circle style="fill:#1f3c1f;" transform="matrix(0.75274025,0,0,0.75274025,-64.160796,-33.534263)" cx="251.5" cy="172.7" r="3.7" class="st5"/><path d="m99.108558,96.84035s4.441182-0.60219,4.215352,0.90329c-0.37637,2.70986-0.97857,1.20438-2.70986,3.08623-1.731302,1.88185-10.162003,2.93569-11.818025,2.63459-1.580761-0.30109,0.07525-3.38733,2.258218-3.68842,2.258217-0.3011,8.054315-2.93569,8.054315-2.93569z" style="fill:#1f3c1f;" class="st5"/><path d="m101.06569,97.81892s-2.785142-13.248232-14.82898-18.291591c0,0-3.236783-1.806576-3.989534,0.903282-0.752739,2.709871,1.881859,3.46261,1.580761,5.118631,0,0,0.75274,0.602196,0.225815,2.182958l0.451653,0.526913-1.204392,1.129108c-0.376369,1.129109-0.978554,1.806579-1.129109,2.107679-0.150543,0.30109,0.37637,1.50547,0.225827,1.88184-0.451642,1.2044,0.82801,1.73131,0.376369,3.01097-0.150554,0.30109-0.150554,0.67746,0,0.90328,0.225827,0.67747,0.602196,1.65603,0.526913,1.95713-0.150543,0.37637-0.07525,1.7313,1.354935,1.65603,1.430207-0.0753,5.946653-2.18295,8.430697-0.37637,2.408761,1.80657,7.979045-2.70986,7.979045-2.70986z" style="fill:#1f3c1f;" class="st5"/><path d="m100.53877,99.3244s-0.45164,1.20438-1.129112,1.58075c-0.67747,0.37637-1.430208,0.82801-1.580751,1.20438-0.150555,0.3011-1.279664,2.70987-1.279664,2.70987s-0.677467,0.45164-0.978565,0.37637c-0.301087-0.0753,0.677467-0.45165,0.677467-0.45165s0.903294-1.88185,1.279664-2.70986c0.376369-0.82802,1.656029-1.35493,1.656029-1.35493s0.37637-1.05384,0.828012-1.20439c0.52692-0.15054,0.52692-0.15054,0.52692-0.15054z" style="fill:#1f3c1f;" class="st5"/><path d="m100.4635,99.92658s0.52692,1.58076,0.22582,2.40877c-0.3011,0.82802-1.053832,0.75274-1.354932,3.08624,0,0,0.526908,1.43021,0.37637,1.7313,0,0-0.22583,0.3011-0.37637-0.0753-0.15055-0.37637,0.0753-1.05384-0.3011-1.7313-0.37637-0.67747,1.430212-3.23679,1.430212-3.23679s-0.602204-1.58075-0.37637-2.33349c0.22582-0.60219,0.37637,0.15055,0.37637,0.15055z" style="fill:#1f3c1f;" class="st5"/><path d="m98.807458,101.80844s-0.301084,2.25822-0.602182,2.78513c-0.301098,0.45165-0.526924,0.3011-0.677467,1.27966,0,0-0.225826,0.0753-0.150543-0.37637,0.07525-0.45164,0.225814-0.52691,0.526912-0.97856,0.301098-0.45164,0.677468-2.48404,0.37637-2.78514-0.225826-0.37637,0.52691,0.0753,0.52691,0.0753z" style="fill:#1f3c1f;" class="st5"/><path d="m95.495406,100.90515s-1.053837,2.10767-1.053837,2.63459c-0.07525,0.52692,0.301098,0.52692-0.150543,1.43021,0,0,0.150543,0.22582,0.301098-0.3011,0.150543-0.45164,0.150543-0.60219,0.150543-1.12911s0.828011-2.40877,1.279663-2.48404c0.37637,0-0.526924-0.15055-0.526924-0.15055z" style="fill:#1f3c1f;" class="st5"/><path d="m102.34534,97.29199h0.0752c1.65602-1.95711,2.25822-4.59171,2.25822-4.59171,0-0.0753,0-0.15055-0.0752-0.15055s-0.0752,0-0.15055,0.0752c0,0-0.60219,2.63459-2.25822,4.51645,0.0752,0,0.0752,0.0752,0.15054,0.15054z" style="fill:#1f3c1f;" class="st5"/><path d="m102.64644,97.36727c1.58076-0.15055,2.10768-0.90329,2.10768-0.97856v-0.15055h-0.15055s-0.52692,0.67747-1.95713,0.90329c-0.0752,0-0.0752,0.0752-0.0752,0.15054,0,0.0752,0,0.0752,0.0752,0.0752z" style="fill:#1f3c1f;" class="st5"/><path d="m47.771682,148.92998s-8.731795-11.89331-30.78708-10.53837l0.903282-2.25822s23.786602,1.05384,29.883798,12.79659z" style="fill:#ffffff;" class="st0"/>
</svg>
