<?xml version="1.0" encoding="UTF-8" standalone="no"?>
<!-- Created with Inkscape (http://www.inkscape.org/) -->

<svg
   xmlns:dc="http://purl.org/dc/elements/1.1/"
   xmlns:cc="http://creativecommons.org/ns#"
   xmlns:rdf="http://www.w3.org/1999/02/22-rdf-syntax-ns#"
   xmlns:svg="http://www.w3.org/2000/svg"
   xmlns="http://www.w3.org/2000/svg"
   xmlns:xlink="http://www.w3.org/1999/xlink"
   version="1.1"
   width="41.9482"
   height="33.146423"
   id="svg2"
   xml:space="preserve"><metadata
   id="metadata10"><rdf:RDF><cc:Work
       rdf:about=""><dc:format>image/svg+xml</dc:format><dc:type
         rdf:resource="http://purl.org/dc/dcmitype/StillImage" /><dc:title></dc:title></cc:Work></rdf:RDF></metadata><defs
   id="defs8"><linearGradient
     id="linearGradient3759"><stop
       id="stop3761"
       style="stop-color:#000000;stop-opacity:0"
       offset="0" /><stop
       id="stop3763"
       style="stop-color:#000000;stop-opacity:1"
       offset="1" /></linearGradient><linearGradient
     x1="38.025002"
     y1="36.5"
     x2="60.775002"
     y2="36.5"
     id="linearGradient3765"
     xlink:href="#linearGradient3759"
     gradientUnits="userSpaceOnUse"
     gradientTransform="translate(-18.8268,-22)" /></defs>
	<path
   d="m 19.1982,16.198 0,-7 c 0,0 2.0109,1.8021 4.0055,1.802 l 10.9945,0 0,-4.25 7.75,7.75 -7.75,7.75 0,-4.25 -11,0 c -2,0 -4,-1.802 -4,-1.802 z"
   id="path2989"
   style="fill:url(#linearGradient3765);fill-opacity:1" /><path
   d="m 20.6464,0 c 5.6886,0 10.4897,3.8 12.0034,9 l -4.2552,0 c -1.334,-2.9485 -4.3015,-5 -7.7482,-5 -4.6944,0 -8.5,3.8056 -8.5,8.5 0,4.6944 3.8056,8.5 8.5,8.5 1.4475,0 2.8106,-0.3618 4.0036,-1 l 5.9973,0 c -2.2805,3.0361 -5.9113,5 -10.0009,5 -2.3644,0 -4.5755,-0.6565 -6.5,-1.7574 l -9.0251,9.0252 c -1.1716,1.1715 -3.0711,1.1715 -4.2426,0 -1.1716,-1.1716 -1.1716,-3.0711 0,-4.2427 L 9.9435,18.961 C 8.8029,17.0755 8.1464,14.8644 8.1464,12.5 8.1464,5.5964 13.7429,0 20.6464,0 z"
   id="path4"
   style="fill:#333333" />
</svg>