<?xml version="1.0" encoding="UTF-8" standalone="no"?>
<!-- Created with Inkscape (http://www.inkscape.org/) -->

<svg
   xmlns:dc="http://purl.org/dc/elements/1.1/"
   xmlns:cc="http://creativecommons.org/ns#"
   xmlns:rdf="http://www.w3.org/1999/02/22-rdf-syntax-ns#"
   xmlns:svg="http://www.w3.org/2000/svg"
   xmlns="http://www.w3.org/2000/svg"
   version="1.1"
   width="50.4259"
   height="50.42593"
   viewBox="0 0 50.4259 50.42593"
   id="svg2"
   xml:space="preserve"><metadata
   id="metadata10"><rdf:RDF><cc:Work
       rdf:about=""><dc:format>image/svg+xml</dc:format><dc:type
         rdf:resource="http://purl.org/dc/dcmitype/StillImage" /><dc:title></dc:title></cc:Work></rdf:RDF></metadata><defs
   id="defs8" />
	<path
   d="M 34.4375,0 5,29.4375 l 0,2 5,0 L 38.84375,2.59375 C 37.44325,1.6285 35.9754,0.75630995 34.4375,0 z M 40.5625,3.84375 12,32.4375 l 0,6 8,0 0,8 3.1875,-3.1875 0,-11.46875 8.375,0 0,-8.46875 11.5625,0 L 50.4375,16 C 48.0987,11.2442 44.6957,7.08185 40.5625,3.84375 z M 2.53125,39.4375 0,50.4375 10.40625,48.03125 C 9.0898504,44.07075 6.86415,40.5203 2.53125,39.4375 z"
   id="path4"
   style="fill:#71b8ff;fill-opacity:1;stroke-width:0.2;stroke-linejoin:round" />
<path
   d="m 34.58995,26.621195 0,8.09375 -8.0625,0 0,7.5625 8.0625,0 0,8.0625 7.5625,0 0,-8.0625 8.09375,0 0,-7.5625 -8.09375,0 0,-8.09375 -7.5625,0 z"
   id="path3026"
   style="fill:#0078f0;fill-opacity:1;stroke:#000000;stroke-width:0;stroke-miterlimit:4" /></svg>