<?xml version="1.0" encoding="utf-8"?>
<!-- Generator: Adobe Illustrator 19.1.0, SVG Export Plug-In . SVG Version: 6.00 Build 0)  -->
<!DOCTYPE svg PUBLIC "-//W3C//DTD SVG 1.1//EN" "http://www.w3.org/Graphics/SVG/1.1/DTD/svg11.dtd">
<svg version="1.1" id="Layer_1" xmlns="http://www.w3.org/2000/svg" xmlns:xlink="http://www.w3.org/1999/xlink" x="0px" y="0px"
	 viewBox="0 0 2620.9 864" style="enable-background:new 0 0 2620.9 864;" xml:space="preserve">
<style type="text/css">
	.st0{fill:#1B3B1B;}
	.st1{fill:#3FB58B;}
	.st2{clip-path:url(#SVGID_2_);}
	.st3{fill:#A2DADD;}
	.st4{clip-path:url(#SVGID_2_);fill:#77CAB8;}
	.st5{fill:#BCE1CC;}
	.st6{fill:#77CAB8;}
	.st7{fill:#FFFFFF;}
	.st8{fill:#704655;}
</style>
<g>
	<path class="st0" d="M1067.7,353.7v3.5c0,10.2-3.1,16.7-10.1,20c8.4,3.3,11.6,10.8,11.6,21.3v8.1c0,15.3-8.1,23.5-23.7,23.5H1021
		v-99.2h23.5C1060.7,330.9,1067.7,338.4,1067.7,353.7z M1036.6,345.1v26.2h6.1c5.8,0,9.4-2.6,9.4-10.5v-5.5c0-7.1-2.4-10.2-7.9-10.2
		H1036.6z M1036.6,385.5V416h8.9c5.2,0,8.1-2.4,8.1-9.8v-8.6c0-9.2-3-12.1-10.1-12.1H1036.6z"/>
	<path class="st0" d="M1157.4,430.1h-15.7l-2.7-18h-19.1l-2.7,18h-14.3l15.9-99.2h22.8L1157.4,430.1z M1121.8,398.7h15l-7.5-50.2
		L1121.8,398.7z"/>
	<path class="st0" d="M1183.1,330.9h48.2v14.2H1215v85.1h-15.6v-85.1h-16.3V330.9z"/>
	<path class="st0" d="M1332.3,372.7h21.4v14.2h-21.4V416h26.9v14.2h-42.5v-99.2h42.5v14.2h-26.9V372.7z"/>
	<path class="st0" d="M1442.5,393.1v13.2c0,15.9-7.9,25-23.3,25s-23.3-9.1-23.3-25v-51.6c0-15.9,7.9-25,23.3-25s23.3,9.1,23.3,25
		v9.6h-14.7v-10.6c0-7.1-3.1-9.8-8.1-9.8c-5,0-8.1,2.7-8.1,9.8v53.6c0,7.1,3.1,9.6,8.1,9.6c5,0,8.1-2.6,8.1-9.6v-14.2H1442.5z"/>
	<path class="st0" d="M1479.1,354.7c0-15.9,8.4-25,23.7-25c15.3,0,23.7,9.1,23.7,25v51.6c0,15.9-8.4,25-23.7,25
		c-15.3,0-23.7-9.1-23.7-25V354.7z M1494.7,407.3c0,7.1,3.1,9.8,8.1,9.8c5,0,8.1-2.7,8.1-9.8v-53.6c0-7.1-3.1-9.8-8.1-9.8
		c-5,0-8.1,2.7-8.1,9.8V407.3z"/>
	<path class="st0" d="M1564.1,373.4h28.4v14.2h-28.4V373.4z"/>
	<path class="st0" d="M1631.5,330.9h15.6v99.2h-15.6V330.9z"/>
	<path class="st0" d="M1700.7,358.2v71.9h-14v-99.2h19.6l16,59.4v-59.4h13.9v99.2h-16L1700.7,358.2z"/>
	<path class="st0" d="M1771.1,330.9h48.2v14.2H1803v85.1h-15.6v-85.1h-16.3V330.9z"/>
	<path class="st0" d="M1870.1,372.7h21.4v14.2h-21.4V416h26.9v14.2h-42.5v-99.2h42.5v14.2h-26.9V372.7z"/>
	<path class="st0" d="M1967.6,430.1c-0.8-2.6-1.4-4.1-1.4-12.2v-15.6c0-9.2-3.1-12.6-10.2-12.6h-5.4v40.4H1935v-99.2h23.5
		c16.2,0,23.1,7.5,23.1,22.8v7.8c0,10.2-3.3,16.9-10.2,20.1c7.8,3.3,10.4,10.8,10.4,21.1v15.3c0,4.8,0.1,8.4,1.7,12H1967.6z
		 M1950.6,345.1v30.5h6.1c5.8,0,9.4-2.6,9.4-10.5v-9.8c0-7.1-2.4-10.2-7.9-10.2H1950.6z"/>
	<path class="st0" d="M2070.8,430.1h-15.7l-2.7-18h-19.1l-2.7,18h-14.3l15.9-99.2h22.8L2070.8,430.1z M2035.3,398.7h15l-7.5-50.2
		L2035.3,398.7z"/>
	<path class="st0" d="M2151.5,393.1v13.2c0,15.9-7.9,25-23.3,25s-23.3-9.1-23.3-25v-51.6c0-15.9,7.9-25,23.3-25s23.3,9.1,23.3,25
		v9.6h-14.7v-10.6c0-7.1-3.1-9.8-8.1-9.8c-5,0-8.1,2.7-8.1,9.8v53.6c0,7.1,3.1,9.6,8.1,9.6c5,0,8.1-2.6,8.1-9.6v-14.2H2151.5z"/>
	<path class="st0" d="M2184.8,330.9h48.2v14.2h-16.3v85.1h-15.6v-85.1h-16.3V330.9z"/>
	<path class="st0" d="M2268.2,330.9h15.6v99.2h-15.6V330.9z"/>
	<path class="st0" d="M2322.2,354.7c0-15.9,8.4-25,23.7-25c15.3,0,23.7,9.1,23.7,25v51.6c0,15.9-8.4,25-23.7,25
		c-15.3,0-23.7-9.1-23.7-25V354.7z M2337.8,407.3c0,7.1,3.1,9.8,8.1,9.8c5,0,8.1-2.7,8.1-9.8v-53.6c0-7.1-3.1-9.8-8.1-9.8
		c-5,0-8.1,2.7-8.1,9.8V407.3z"/>
	<path class="st0" d="M2421.9,358.2v71.9h-14v-99.2h19.6l16,59.4v-59.4h13.9v99.2h-16L2421.9,358.2z"/>
	<path class="st0" d="M2517.8,329.8c15.2,0,23,9.1,23,25v3.1h-14.7v-4.1c0-7.1-2.8-9.8-7.8-9.8c-5,0-7.8,2.7-7.8,9.8
		c0,20.4,30.5,24.2,30.5,52.6c0,15.9-7.9,25-23.3,25s-23.3-9.1-23.3-25v-6.1h14.7v7.1c0,7.1,3.1,9.6,8.1,9.6s8.1-2.6,8.1-9.6
		c0-20.4-30.5-24.2-30.5-52.6C2494.9,338.8,2502.7,329.8,2517.8,329.8z"/>
	<path class="st1" d="M1521.4,544.5v-2.7h4.8v-35.4h-4.8v-2.7h12.7c7.5,0,15.6,1,15.6,9.9c0,4.1-2.4,7.6-6.3,8.9v0.1
		c5,1.4,8.6,5.1,8.6,10.6c0,7.5-5.8,11.3-12.8,11.3H1521.4z M1535.7,521.4c5.4,0,10.8-1.3,10.8-7.7c0-4.4-2.7-7.3-11.9-7.3h-5.4v15
		H1535.7z M1537.3,541.8c6.5,0,11.6-1.6,11.6-9c0-2.5-1.2-8.6-12-8.6h-7.7v17.6H1537.3z"/>
	<path class="st1" d="M1563.8,544.5v-2.7h5l12.7-35.4h-4v-2.7h13.8v2.7h-3.9l12.6,35.4h5.2v2.7h-13.3v-2.7h4.9l-3.6-10.1h-17.6
		l-3.6,10.1h5v2.7H1563.8z M1592.2,528.9l-7.7-21.8h-0.1l-7.8,21.8H1592.2z"/>
	<path class="st1" d="M1640.6,514.5h-3.1v-8.1H1627v35.4h5.1v2.7h-13.2v-2.7h5.1v-35.4h-10.6v8.1h-3.1v-10.8h30.3V514.5z"/>
	<path class="st1" d="M1650.9,544.5v-2.7h5.3v-35.4h-5.1v-2.7h15.2c14.1,0,15.9,7.1,15.9,11.6c0,10.6-8,12.9-16,12.9h-6.9v13.5h5.3
		v2.7H1650.9z M1659.2,525.5h7.5c6.8,0,12.3-2.4,12.3-9.7c0-8.4-6.2-9.5-13.4-9.5h-6.4V525.5z"/>
	<path class="st1" d="M1694.1,544.5v-2.7h4.8v-35.4h-4.8v-2.7h12.7v2.7h-4.8v35.4h17.5V536h3v8.5H1694.1z"/>
	<path class="st1" d="M1733.7,544.5v-2.7h5l12.7-35.4h-4v-2.7h13.8v2.7h-3.9l12.6,35.4h5.2v2.7h-13.3v-2.7h4.9l-3.6-10.1h-17.6
		l-3.6,10.1h5v2.7H1733.7z M1762.1,528.9l-7.7-21.8h-0.1l-7.8,21.8H1762.1z"/>
	<path class="st1" d="M1794,541.8h4.9v2.7h-12.6v-2.7h4.7v-35.4h-4.7v-2.7h9.4l20.7,35.4h0.1v-32.7h-4.7v-2.7h12.5v2.7h-4.7v38.1
		h-3.2l-22.2-37.3h-0.1V541.8z"/>
	<path class="st1" d="M1864.9,514.5h-3.1v-8.1h-10.6v35.4h5.1v2.7h-13.2v-2.7h5.1v-35.4h-10.6v8.1h-3.1v-10.8h30.3V514.5z"/>
	<path class="st1" d="M1875.8,538.6c1.6,0,3,1.4,3,3.1c0,1.7-1.4,3.1-3,3.1c-1.7,0-3.1-1.4-3.1-3.1
		C1872.8,540.1,1874.1,538.6,1875.8,538.6z"/>
	<path class="st1" d="M1914.8,502.8c11.9,0,21.5,9.7,21.5,21.3c0,11.6-9.7,21.3-21.5,21.3c-11.9,0-21.5-9.7-21.5-21.3
		C1893.4,512.4,1902.9,502.8,1914.8,502.8z M1914.8,542.7c10.2,0,18.5-8.4,18.5-18.6c0-10.2-8.3-18.6-18.5-18.6s-18.4,8.4-18.4,18.6
		C1896.4,534.3,1904.7,542.7,1914.8,542.7z"/>
	<path class="st1" d="M1948.4,544.5v-2.7h5v-35.4h-5v-2.7h17.6c11.1,0,14.3,4.7,14.3,9.8c0,5.2-3.6,9.2-9.1,9.8v0.1
		c5.5,1.5,7.2,5.1,7.2,10.1v8.3h5.1v2.7h-8.1v-11.1c0-7.6-5.6-8.9-12.7-8.9h-6.2v17.4h5v2.7H1948.4z M1956.5,521.7h6.2
		c5.5,0,14.6-0.2,14.6-7.9c0-7.1-7.6-7.4-12.6-7.4h-8.1V521.7z"/>
	<path class="st1" d="M2031.2,537.9h-0.1c-3.6,5.7-9.7,7.5-14.2,7.5c-14,0-21.9-10.1-21.9-21.3c0-7.7,5-21.3,22.3-21.3
		c3.5,0,9.7,1.5,13.4,6.1h0.1v-5.2h2.7v12.4h-2.7c-1.2-7.2-8.3-10.6-14.2-10.6c-10.8,0-18.5,8.5-18.5,18.6
		c0,11.3,8.6,18.6,18.9,18.6c8.1,0,14.4-6.1,14.7-13.4h-12.8v-2.7h19.9v2.7h-4.5v15.3h-3.1V537.9z"/>
	<g>
		<g>
			<rect x="2089.3" y="520.8" class="st1" width="330.7" height="6.6"/>
		</g>
		<g>
			<path class="st1" d="M2429.6,537.1c-7.2,0-13-5.8-13-13c0-7.2,5.8-13,13-13s13,5.8,13,13C2442.6,531.3,2436.8,537.1,2429.6,537.1
				z M2429.6,517.7c-3.5,0-6.4,2.9-6.4,6.4c0,3.5,2.9,6.4,6.4,6.4c3.5,0,6.4-2.9,6.4-6.4C2436,520.6,2433.2,517.7,2429.6,517.7z"/>
		</g>
	</g>
	<g>
		<g>
			<rect x="1130.3" y="521.9" class="st1" width="330.7" height="6.6"/>
		</g>
		<g>
			<path class="st1" d="M1120.6,537.1c-7.2,0-13-5.8-13-13c0-7.2,5.8-13,13-13c7.2,0,13,5.8,13,13
				C1133.6,531.3,1127.8,537.1,1120.6,537.1z M1120.6,517.7c-3.5,0-6.4,2.9-6.4,6.4c0,3.5,2.9,6.4,6.4,6.4c3.5,0,6.4-2.9,6.4-6.4
				C1127,520.6,1124.1,517.7,1120.6,517.7z"/>
		</g>
	</g>
</g>
<g>
	<g>
		<g>
			<circle class="st0" cx="583.2" cy="630.8" r="12.2"/>
			<circle class="st0" cx="695.3" cy="587.9" r="18.4"/>
			<circle class="st0" cx="581.1" cy="427.8" r="12.4"/>
			<g>
				<path class="st0" d="M622.2,563.4c0,0-1.6,1.5-1,3.3c0.6,1.7-1.2,4.7-0.7,6.3c0.5,1.5-3,4.6-1.9,5.1
					c1.1,0.4,11.2-12.1,11.6-18.5C630.4,553,622.2,563.4,622.2,563.4z"/>
				<path class="st0" d="M627.4,555.1c0,0-8.3-0.6-12.4,2c-4,2.6-12.8,6.6-11.1,8.2s15.8,0.5,21-2.7
					C630.1,559.4,627.4,555.1,627.4,555.1z"/>
				<path class="st0" d="M629.6,552.4c0,0-0.5-11.3-11.2-9.2c0,0,1.4,2.3,1.6,3.1c0.1,0.8,1.1,1.6,2.1,4.1c1,2.5-0.3,4.9,5.3,4.7
					C633,554.9,629.6,552.4,629.6,552.4z"/>
				<path class="st0" d="M636.1,525.3c0,0,3.1,12.1-5.9,29.2c0,0-0.4-4.7-1-5.9c-0.6-1.2-0.6-12.3,1.6-13.5S633,523.9,636.1,525.3z"
					/>
				<path class="st0" d="M627.5,560l12.6,4.2c0,0,5.5-3,2.4-5.7c-3-2.7-12.9-8.2-12.9-8.2l-5,7L627.5,560z"/>
				<g>
					
						<rect x="639.8" y="562.8" transform="matrix(0.9005 0.4348 -0.4348 0.9005 309.0043 -224.029)" class="st0" width="8.8" height="1.2"/>
				</g>
			</g>
			<g>
				<path class="st0" d="M581.2,660c0,0,2.4-0.4,2.9-2.3c0.5-1.9,3.9-3.5,4.5-5.2c0.5-1.7,5.5-2.3,4.8-3.3c-0.7-1.1-17.4,4-21.6,9.6
					C567.5,664.3,581.2,660,581.2,660z"/>
				<path class="st0" d="M571.6,664.3c0,0,7.1,5.6,12.3,5.7c5.2,0.1,15.4,1.9,14.9-0.6c-0.5-2.5-13.8-10-20.4-10.3
					S571.6,664.3,571.6,664.3z"/>
				<path class="st0" d="M568,665.3c0,0-6.4,10.4,4.4,15c0,0,0.1-2.9,0.5-3.8c0.4-0.8,0-2.1,0.6-4.9c0.7-2.8,3.3-4.2-1.9-7.4
					C566.4,661.1,568,665.3,568,665.3z"/>
				<path class="st0" d="M545.6,685.7c0,0,4.6-12.8,23.1-22.6c0,0-2.5,4.4-2.7,5.9s-7,11.4-9.6,11.1S547.6,688.8,545.6,685.7z"/>
				<path class="st0" d="M574.5,659.8l-8.7-11.4c0,0-6.7-0.6-5.6,3.6s6.5,15.2,6.5,15.2l8.7-3.3L574.5,659.8z"/>
				<g>
					
						<rect x="556.8" y="646" transform="matrix(-0.5008 -0.8655 0.8655 -0.5008 283.1169 1456.5726)" class="st0" width="9.6" height="1.3"/>
				</g>
			</g>
			<circle class="st0" cx="620.8" cy="511.5" r="13.5"/>
			<circle class="st0" cx="550.1" cy="508.8" r="13.9"/>
			<circle class="st0" cx="582.4" cy="504.6" r="15.6"/>
			<circle class="st0" cx="567.6" cy="468.2" r="13.5"/>
			<circle class="st0" cx="606.2" cy="474.9" r="12.3"/>
			<path class="st0" d="M553.1,514.9c0,0,19.7,9.9,29.1,43.7l1.1-6.9c0,0-7.8-25.2-29.7-38.5L553.1,514.9z"/>
			<path class="st0" d="M576.2,473.6c0,0,23.1,20.6,3.5,93.9l3.7-7.7c0,0,17.8-61-2.7-88.2L576.2,473.6z"/>
			<path class="st0" d="M619,619.3c0,0-3.1-19.8-72.3-40.1c-53.7-15.7-30.5-50.9-84.3-67.6c-37.1-11.5,56.5-2.8,89.5,18.2
				c16.4,10.4,25.4,24.3,26.5,27s9.7,2.4,22.9,8.7c26.3,12.5,24.7,22.7,23.9,39.9C624.6,617.1,619,619.3,619,619.3z"/>
			<circle class="st0" cx="655.4" cy="620.3" r="9.9"/>
			<circle class="st0" cx="639.3" cy="639.3" r="5.6"/>
			<path class="st0" d="M640.6,640.7c0,0,11.2,11.5,16.4,8.9l-1,3.3c0,0-13.8-5.3-16.5-11.5C636.8,635.1,640.6,640.7,640.6,640.7z"
				/>
			<path class="st0" d="M656.3,621.8c0,0,7.1,17.9-0.4,35.7c-2.6,6.3-12.5,15.6-7.4,7.6c6.9-10.8,13-27.7,3.3-47.4"/>
			<circle class="st0" cx="421.8" cy="640.6" r="9.9"/>
			<circle class="st0" cx="410.7" cy="662.9" r="5.6"/>
			<path class="st0" d="M412.3,664c0,0,13.7,8.5,18,4.7l-0.2,3.5c0,0-14.7-1.8-18.8-7.2C407.3,659.5,412.3,664,412.3,664z"/>
			<path class="st0" d="M423,641.8c0,0,11.2,15.6,8.2,34.8c-1,6.7-8.3,18.2-5.3,9.1c4.1-12.2,5.9-30-8.2-46.8"/>
			<path class="st0" d="M622.2,557.5c0,0-27.4-13-43.1,13l0.7-7.3c0,0,15.1-18.4,41.8-7.8L622.2,557.5z"/>
			<circle class="st0" cx="711.6" cy="626.4" r="7.7"/>
			<circle class="st0" cx="662.3" cy="572.9" r="9.9"/>
			<path class="st0" d="M618.7,517.5c0,0-27.8,28-36.6,46.6l0.7-6.5c0,0,19.9-31.7,35.8-44.4"/>
			<path class="st0" d="M606.2,474.9c0,0-5.3,66.4-35.2,101.8C571,576.6,604.7,551.5,606.2,474.9z"/>
			<path class="st0" d="M714.6,621.9c0,0,1.7,17.7-22.1,36.2C692.6,658.1,708.1,641.9,714.6,621.9z"/>
			<path class="st0" d="M662.3,572.9c0,0,38.5,33.4-4.7,88.1C657.6,661,694.6,608.6,662.3,572.9z"/>
			<path class="st0" d="M585.3,426.2c0,0,14.2,43.8,1.6,74.9C586.9,501.1,592.7,462.5,585.3,426.2z"/>
			<g>
				<path class="st0" d="M624.4,606l-7.9,4c14.3,43.6-17.2,70.6-33.1,81.1c-9.4-30.3,5.3-60.4,5.3-60.4l-5.6,0.2
					c-4.2,22.1-5.3,37-5.2,46.8c-3.1-8.3-5.7-13.2-5.7-13.2s-19.8-33.8-0.8,5.2c3.4,7.1,5.6,12.8,7.1,18.6c0.4,2.9,0.9,4.6,1.1,5.1
					c-2.8,1.7-4.6,2.5-4.6,2.5l-2,1.1c1-0.2,6.1-1.1,7.2-1.2c1.1-0.2,2.1-0.4,3.2-0.6c0.4-0.1,1-0.2,1.3-0.3c0.1,0,0.2,0,0.3-0.1
					C644.8,652.9,621.8,614,624.4,606z"/>
				<path class="st0" d="M627.1,683.9c38.2-21.9,66.4-59.5,71.2-91.1c-9.9,30.2-37.2,66.7-73.3,87.5c-6.3,3.6-11.4,6.7-15.5,9.3
					c4.7-1.2,9.4-2.4,14.1-3.7C624.7,685.2,625.8,684.6,627.1,683.9z"/>
			</g>
			<g>
				<path class="st0" d="M501.5,634c0,0,2.8,3.8,6.6,3c3.8-0.8,9.6,3.7,12.9,3.1c3.4-0.6,8.9,7.5,10.1,5.3
					c1.2-2.2-22.5-26.5-35.9-28.8C481.8,614.2,501.5,634,501.5,634z"/>
				<path class="st0" d="M485.5,621.3c0,0-3.3,17.3,1.2,26.4c4.5,9.1,10.5,28.4,14.3,25.3s5.1-32.8-0.4-44.6
					C495.2,616.6,485.5,621.3,485.5,621.3z"/>
				<path class="st0" d="M480.4,615.9c0,0-23.7-1.8-22.1,21.1c0,0,5.1-2.5,6.9-2.5c1.8,0,3.5-1.9,9.1-3.3c5.5-1.4,10.3,1.9,11.1-10
					C486.4,609.4,480.4,615.9,480.4,615.9z"/>
				<path class="st0" d="M425.3,595.4c0,0,26.2-3.5,59.7,19.7c0,0-9.9-0.3-12.6,0.7c-2.7,1-26-1.8-27.7-6.8S421.5,601.6,425.3,595.4
					z"/>
				<path class="st0" d="M495.8,622.2l12-25.3c0,0-4.9-12.2-11.3-6.5c-6.4,5.7-20.5,24.9-20.5,24.9l13.4,12.1L495.8,622.2z"/>
				<g>
					
						<rect x="497.8" y="586.9" transform="matrix(0.5392 -0.8422 0.8422 0.5392 -261.6498 698.0199)" class="st0" width="18.6" height="2.5"/>
				</g>
			</g>
			<g>
				<path class="st0" d="M508,683.6c46.2-24.5,76.5-76.6,77.4-125.5c-7.7,45.3-37.1,96-80.8,119.2c-18.4,9.7-37.9,15.3-57.4,17.1
					c7.3,1.4,14.5,2.7,21.6,3.6C482,695.1,495.2,690.3,508,683.6z"/>
				<path class="st0" d="M492.7,606.2c-14.9,31.7-42.8,63-76.6,80.9c3.3,0.9,6.7,1.8,10,2.6C458,670.6,482.8,639.6,492.7,606.2z"/>
			</g>
		</g>
		<g>
			<defs>
				<path id="SVGID_1_" d="M481,58.5c188.9,0,345.3,139.1,372.4,320.5h56L764.7,514.3L621.2,379.1h62.9
					C659.6,289.9,577.9,224.4,481,224.4c-116.4,0-362.9,131.2-322.8,240.4c77,209.7,240,258.6,356.4,260.1
					c225.3,3,330.2-192.4,330.2-192.4C801.8,693.2,655.2,811.6,481,811.6c-208,0-376.5-168.6-376.5-376.5S273,58.5,481,58.5z"/>
			</defs>
			<use xlink:href="#SVGID_1_"  style="overflow:visible;fill:#A0DADC;"/>
			<clipPath id="SVGID_2_">
				<use xlink:href="#SVGID_1_"  style="overflow:visible;"/>
			</clipPath>
			<g class="st2">
				<path class="st3" d="M481,58.5c188.9,0,345.3,139.1,372.4,320.5h56L764.7,514.3L621.2,379.1h62.9
					C659.6,289.9,577.9,224.4,481,224.4c-116.4,0-362.9,131.2-322.8,240.4c77,209.7,240,258.6,356.4,260.1
					c225.3,3,330.2-192.4,330.2-192.4C801.8,693.2,655.2,811.6,481,811.6c-208,0-376.5-168.6-376.5-376.5S273,58.5,481,58.5z"/>
			</g>
			<g class="st2">
				<g>
					<path class="st1" d="M181.1,517.7h-32.3c5.2,55.2,19.5,107.8,41.1,156.4c30.9,37.6,68.9,69,111.9,92.4
						c33.8,7.2,68.9,11.2,104.9,11.2c132.9,0,253.7-51.7,343.6-136c-54.2,44.2-132.2,84.8-235.8,83.4
						C408.7,723.5,264.3,682.8,181.1,517.7z"/>
				</g>
			</g>
			<path class="st4" d="M750.3,641.5c-89.8,84.3-210.6,136-343.6,136c-36,0-71-3.9-104.9-11.2c51.2,27.8,109.7,43.9,171.7,45.1
				c162.8-26.9,299.1-132,369.2-275.5C835.2,548.9,804.9,597,750.3,641.5z"/>
			<g class="st2">
				<path class="st5" d="M1783.1,97.4C1735-10.4,1647.5-101,1530.1-150.4c-114.1-48.1-236.3-48.9-344.8-11.3
					c89.7-179.1,304.2-260.2,491.5-181.4c195.2,82.2,286.8,307.1,204.5,502.3c-11.5,27.3-25.9,52.5-42.5,75.5
					C1827.9,186.2,1809.1,139.8,1783.1,97.4z"/>
				<path class="st5" d="M1783.1,97.4C1735.9,20.4,1665-43.2,1575.3-81c-146.1-61.5-306.3-39.7-428,43.8
					c4.3-34.1,13.1-68.2,27.1-101.4c3.3-7.9,7-15.6,10.8-23.2c108.5-37.5,230.7-36.8,344.8,11.3C1647.5-101,1735-10.4,1783.1,97.4z"
					/>
				<path class="st5" d="M1783.1,97.4C1735.9,20.4,1665-43.2,1575.3-81c-146.1-61.5-306.3-39.7-428,43.8
					c4.3-34.1,13.1-68.2,27.1-101.4c3.3-7.9,7-15.6,10.8-23.2c108.5-37.5,230.7-36.8,344.8,11.3C1647.5-101,1735-10.4,1783.1,97.4z"
					/>
				<path class="st5" d="M1552.5,754c-65.8,23.6-137.3,31.9-208.7,22.6c61.8-0.2,122.6-12.3,179.1-35.1L1552.5,754z"/>
				<path class="st5" d="M1783.1,97.4c26,42.4,44.8,88.8,55.6,137.3c-4.9,6.8-10,13.4-15.2,19.8C1819,200,1805.2,146.9,1783.1,97.4z
					"/>
				<path class="st5" d="M1783.1,97.4c26,42.4,44.8,88.8,55.6,137.3c-4.9,6.8-10,13.4-15.2,19.8C1819,200,1805.2,146.9,1783.1,97.4z
					"/>
				<path class="st5" d="M993.8,518.7L1523,741.6c-56.5,22.8-117.3,34.9-179.1,35.1c-39.2-5.1-78.4-15.4-116.6-31.4
					C1119.6,699.8,1038.9,617.2,993.8,518.7z"/>
				<path class="st5" d="M993.8,518.7L1523,741.6c-56.5,22.8-117.3,34.9-179.1,35.1c-39.2-5.1-78.4-15.4-116.6-31.4
					C1119.6,699.8,1038.9,617.2,993.8,518.7z"/>
				<path class="st5" d="M1168.9,144.9c-21.5-57.3-29.4-119.7-21.5-182.1c121.7-83.5,281.9-105.4,428-43.8
					c89.7,37.8,160.5,101.4,207.8,178.4c22.1,49.5,35.9,102.6,40.4,157.1c-38.6,46.7-121,105.9-175,129.6L1168.9,144.9z"/>
				<path class="st5" d="M1168.9,144.9c-21.5-57.3-29.4-119.7-21.5-182.1c121.7-83.5,281.9-105.4,428-43.8
					c89.7,37.8,160.5,101.4,207.8,178.4c22.1,49.5,35.9,102.6,40.4,157.1c-38.6,46.7-144.7,97.6-198.7,121.4L1168.9,144.9z"/>
				<path class="st5" d="M1168.9,144.9c-21.5-57.3-29.4-119.7-21.5-182.1c121.7-83.5,281.9-105.4,428-43.8
					c89.7,37.8,160.5,101.4,207.8,178.4c22.1,49.5,35.9,102.6,40.4,157.1c-38.6,46.7-162.8,105.7-216.8,129.5L1168.9,144.9z"/>
			</g>
			<g class="st2">
				<path class="st5" d="M854.2,378.8c0,0,1.1-1,3-2.7c-1.3,0.9-2.3,1.7-3.2,2.3C854.1,378.5,854.2,378.6,854.2,378.8z"/>
				<path class="st5" d="M854.2,378.8c0,0,1.1-1,3-2.7c-1.3,0.9-2.3,1.7-3.2,2.3C854.1,378.5,854.2,378.6,854.2,378.8z"/>
				<path class="st6" d="M462.1,101.6c-83.7,0-161.6,24.8-226.8,67.4l58.7,24.7c56-28.1,119.2-44,186.1-44
					c162.8,0,303.8,93.6,372,229.9c0,0,0.7-0.5,1.9-1.4C796.8,217.1,643,101.6,462.1,101.6z"/>
				<path class="st5" d="M903.4,520.2c-0.2,0.6-0.4,1.3-0.6,1.9c0.5-0.6,1-1.3,1.5-1.9H903.4z"/>
			</g>
			<g class="st2">
				<path class="st1" d="M108.6,379c-4.8,9.6-9.3,19.5-13.4,29.5c1.6,29.5,6.4,58.2,13.9,85.8c-3-19.3-4.7-39.1-4.7-59.2
					C104.4,416,105.9,397.3,108.6,379z"/>
				<path class="st1" d="M481,224.4c97,0,178.7,65.5,203.2,154.7h-62.9l143.5,135.2l144.6-135.2h-56c0-0.1,0-0.2,0-0.3
					c-0.7,0.5-1.1,0.8-1.1,0.8c-68.2-136.3-209.2-229.9-372-229.9C317.6,149.7,177,243,108.6,379c-2.7,18.3-4.2,37-4.2,56.1
					c0,20.1,1.6,39.9,4.7,59.2c2.4,8.8,5,17.4,8,26h65.3c-8.7-17.1-16.8-35.5-24.2-55.5C118.1,355.5,364.6,224.4,481,224.4z"/>
			</g>
		</g>
		<g>
			<path class="st7" d="M524.1,142.3v-9.8c0-2.5-2.5-4.1-4.8-3.1l-9.3,4.2l-8.9,13.7l-3.8,18.8c-0.6,3,3,4.9,5.2,2.8l14.3-14.1
				L524.1,142.3z"/>
			<path class="st7" d="M512.1,136.7c0,0-8.1-38.5-33.5-47.6c-0.9-0.3-1.9,0-2.4,0.7c-1.6,2.3-3.8,8.7,1.8,25.5
				c0.3,0.8,0.7,1.5,1.3,2c2.3,2,8.5,7.1,14,7.3c0,0-13.2-3.4-14.6,0.2c-1.4,3.6,9.1,23,16.5,23.5
				C502.5,148.8,512.1,136.7,512.1,136.7z"/>
			<path class="st7" d="M519.7,141.4c0,0,37.1-12.9,58.1,4.1c0.7,0.6,1,1.6,0.6,2.4c-1.1,2.6-5.5,7.7-22.8,11.6
				c-0.8,0.2-1.6,0.2-2.4-0.1c-2.9-0.9-10.5-3.6-13.5-8.2c0,0,9.7,9.6,7.4,12.7c-2.3,3.1-24.4,4.1-28.6-2
				C514.3,155.8,519.7,141.4,519.7,141.4z"/>
		</g>
		<g>
			<path class="st7" d="M637.3,149.3l1.7-5.3c0.4-1.3-0.7-2.7-2-2.5l-5.7,0.7L624,148l-5.4,9.5c-0.9,1.5,0.8,3.2,2.3,2.4l10.2-5.1
				L637.3,149.3z"/>
			<path class="st7" d="M631.7,144.2c0,0,2.3-22.2-9.8-31.6c-0.4-0.3-1-0.3-1.4,0c-1.3,0.9-3.6,4-3.5,14.1c0,0.5,0.1,0.9,0.4,1.3
				c0.9,1.5,3.3,5.3,6.3,6.4c0,0-6.6-4.1-8-2.4c-1.4,1.7,0.9,14,4.8,15.6C624.5,149,631.7,144.2,631.7,144.2z"/>
			<path class="st7" d="M635,148c0,0,22.3-0.5,30.7,12.4c0.3,0.4,0.2,1-0.1,1.4c-1,1.2-4.3,3.2-14.3,2.3c-0.5,0-0.9-0.2-1.3-0.5
				c-1.4-1-5-3.8-5.8-6.8c0,0,3.6,6.9,1.8,8.1c-1.8,1.3-13.9-2.1-15.1-6.1S635,148,635,148z"/>
		</g>
		<g>
			<path class="st7" d="M694.6,198.1l-3-3.1c-0.7-0.8-2.1-0.5-2.5,0.5l-1.7,4.2l1.3,7.1l4.5,7.2c0.7,1.1,2.5,0.7,2.5-0.7l0.3-8.9
				L694.6,198.1z"/>
			<path class="st7" d="M689.1,200c0,0-14.3-9.8-25.2-5.1c-0.4,0.2-0.6,0.6-0.5,1c0.2,1.2,1.4,3.9,8.3,7.6c0.3,0.2,0.7,0.3,1,0.2
				c1.4,0,4.9-0.3,6.7-1.9c0,0-5.2,2.9-4.6,4.5c0.6,1.6,9.9,4.6,12.4,2.5S689.1,200,689.1,200z"/>
			<path class="st7" d="M692.9,199.2c0,0,8-15.4,19.8-16.3c0.4,0,0.8,0.2,0.9,0.6c0.4,1.2,0.6,4.1-3.8,10.6
				c-0.2,0.3-0.5,0.5-0.8,0.7c-1.2,0.6-4.4,2-6.8,1.5c0,0,6,0.1,6.2,1.8c0.2,1.7-6.6,8.7-9.8,8C695.6,205.4,692.9,199.2,692.9,199.2
				z"/>
		</g>
		<g>
			<g>
				<path class="st0" d="M490.4,476.4c0,0,19.7-2.8,18.7,4c-1.7,11.9-4.5,5.5-12.1,13.8c-7.6,8.4-45.3,13-52.4,11.7
					s0.3-15,10.1-16.4C464.6,488.2,490.4,476.4,490.4,476.4z"/>
				<path class="st0" d="M499.2,480.7c0,0-12.6-58.8-66-81.2c0,0-14.4-8-17.8,3.9c-3.4,11.9,8.5,15.3,7.1,22.6c0,0,3.4,2.5,1,9.8
					l2,2.2c0,0-3.6,0.1-5.5,5.2c-1.8,5.1-4.5,8-5,9.4c-0.5,1.4,1.8,6.5,1.1,8.5c-2,5.4,3.5,7.9,1.5,13.5c-0.5,1.4-0.6,2.8,0,4.2
					c1.1,2.8,2.6,7.4,2.2,8.6c-0.6,1.8-0.3,7.6,5.9,7.4c6.2-0.2,26.4-9.7,37.5-1.7S499.2,480.7,499.2,480.7z"/>
				<path class="st0" d="M496.8,487.6c0,0-1.9,5.5-5.1,7.1c-3.2,1.5-6.2,3.8-7,5.3c-0.7,1.5-5.6,12-5.6,12s-2.9,2.1-4.4,1.8
					c-1.5-0.3,2.9-2.1,2.9-2.1s3.9-8.3,5.7-11.8c1.8-3.5,7.3-5.9,7.3-5.9s1.6-4.6,3.9-5.5C496.8,487.6,496.8,487.6,496.8,487.6z"/>
				<path class="st0" d="M496.7,490.4c0,0,2.4,7.2,0.9,10.8c-1.5,3.6-4.7,3.4-6.2,13.8c0,0,2.3,6.2,1.7,7.7c0,0-0.9,1.3-1.6-0.3
					c-0.7-1.6,0.3-4.6-1.3-7.6c-1.5-3,6.3-14.4,6.3-14.4s-2.6-7.2-1.5-10.4S496.7,490.4,496.7,490.4z"/>
				<path class="st0" d="M489.2,498.4c0,0-1.5,10.2-2.6,12.3s-2.4,1.4-3.1,5.7c0,0-1,0.4-0.6-1.8c0.5-2.1,1.1-2.5,2.5-4.4
					c1.4-1.9,3-10.9,1.6-12.3C485.7,496.6,489.2,498.4,489.2,498.4z"/>
				<path class="st0" d="M474.6,494.5c0,0-4.6,9.2-4.9,11.6c-0.3,2.4,1.2,2.5-0.7,6.4c0,0,0.6,0.9,1.5-1.1c0.8-2,0.5-2.6,0.5-5
					c-0.1-2.4,3.8-10.7,5.7-11C478.5,495.1,474.6,494.5,474.6,494.5z"/>
			</g>
			<g>
				<path class="st0" d="M505.1,478.3c0.1,0,0.3,0,0.4-0.1c7.3-8.7,10.1-20.3,10.1-20.4c0.1-0.2-0.1-0.5-0.3-0.5
					c-0.2,0-0.5,0.1-0.5,0.3c0,0.1-2.8,11.6-9.9,20.1c-0.2,0.2-0.1,0.5,0,0.6C504.9,478.3,505,478.3,505.1,478.3z"/>
			</g>
			<g>
				<path class="st0" d="M506.3,478.9c0,0,0.1,0,0.1,0c6.8-0.8,9.3-4.2,9.4-4.3c0.1-0.2,0.1-0.5-0.1-0.6c-0.2-0.1-0.5-0.1-0.6,0.1
					c0,0-2.3,3.1-8.8,3.9c-0.2,0-0.4,0.2-0.4,0.5C505.9,478.8,506.1,478.9,506.3,478.9z"/>
			</g>
		</g>
	</g>
	<g>
		<g>
			<path class="st8" d="M82.4,554.2c6.3,15.9,13.3,33.4,19.8,49.3C94.3,586.7,87.8,570.3,82.4,554.2z"/>
			<g>
				<path class="st7" d="M78.1,555.4c6.5,16.5,13.1,32.9,19.8,49.3c2.9-0.8,5.8-1.6,8.7-2.3c-7.4-16.1-14.1-32.5-19.8-49.3
					C86.7,552.8,78.1,555.5,78.1,555.4c5.7,16.8,12.3,33.2,19.8,49.3c0.2,0.5,8.6-2.7,8.7-2.3c-6.6-16.4-13.2-32.8-19.8-49.3
					C86.6,552.7,78.2,555.7,78.1,555.4z"/>
			</g>
		</g>
		<g>
			<path class="st0" d="M81.8,558.5c-70.4-210.3,57-322.1,95.6-351.1c6.2-4.7,24.8-20.7,24.8-20.7s-9.2-14.3-9.4-28.8
				s7-53.7,26.4-56.4c30.1-4.1,47.6,52.9,47.6,52.9c28-54.7,47.8-64.3,56.6-65.5c2.5-0.3,4.6,2,4,4.5c-2.3,9-7.5,29.9-7.7,38.1
				c-0.9,32.6-29.1,56.4-29.1,56.4c26.4-7.9,69.6,15.9,69.6,15.9c27.3-7.9,99.5-7.9,99.5-7.9c17.2-8.7,25.2-6.7,25.2-6.7
				c-8.9,4.1-12,24.3-12,24.3c236.1,3.5,346.2,124.2,346.2,124.2c-59-23.8-99.5,30.8-99.5,30.8c-123.3-57.3-238.7-12.3-238.7-12.3
				s-33.5-63.4-114.5-59c-81,4.4-118.1,55.8-118.1,55.8c18.5,23.8,38,35.8,38,35.8c21.1-3.5,28.2,8.1,28.2,8.1
				c-8.8-5.1-21.1,6-21.1,6s31.7,24.7,46.7,39.6c15,15,24.7,31.7,24.7,45.8c0,14.1,6.2,24.7,6.2,24.7C421,571.1,384,637.1,384,637.1
				C320.6,624.8,263.3,705,263.3,705c-46.1-52-114.7-53.3-135-52.4c-10.4-12.9-22.5-36.4-30-52.4C91.9,584.4,88.1,574.4,81.8,558.5z
				"/>
			<path class="st7" d="M821,335.8c-14.9-16.2-33.7-29.6-52-41.5c-48.2-31.6-102.7-53.5-158.7-66.8C566.3,217,521.2,212,476,211
				c1.4-7.3,4-15.7,10.2-19.7c1.7-1.1,1.7-4.2-0.6-4.7c-11.6-2.3-21.5,6.6-32.8,6.7c-20.4,0.2-40.8,0.9-61.1,2.9
				c-9.1,0.9-18.2,3.1-27.3,3.9c-5.9,0.5-9.1-1.8-15.5-4.6c-15.6-6.8-33.3-12.9-50.6-11.4c9.5-9.9,17.1-22.3,21-35.1
				c3.5-11.5,3.4-23.8,5.9-35.6c1.2-5.4,7.9-19.6,3.4-24.9c-5.5-6.4-17.6,2.4-22,5.9c-17.3,13.5-29.1,34.2-39.3,53.6
				c-8.1-22.1-28.2-60.2-54.3-47c-16.1,8.1-20.9,33.9-22.3,49.9c-1,10.7,0.8,22,6.2,31.5c0.5,0.8,1.6,2.3,2.3,3.6
				c-0.2,0.2-0.3,0.4-0.6,0.6c-3.9,3.5-8,6.8-12,10.2c-22,18.4-43.7,35.6-62,58c-26.3,32-46,69.3-56.6,109.4
				c-17,64.7-9.2,132.2,11.5,195.1c9.4,23.7,18.2,47.3,30.6,69.6c3.6,6.5,9.9,22.1,16.7,25.7c3.1,1.7,9.2,0.4,12.7,0.4
				c45.9,0.9,90.7,17.5,122.1,51.7c1.2,1.3,3.1,0.7,4-0.5c25.8-35.9,70.7-74.5,117.8-66.7c1.1,0.2,2.3-0.1,2.9-1.2
				c21.8-39.7,15.7-87.4-10.2-123.1c-9.5-13.2-6.5-28-12-42.5c-5.4-14.3-15.9-26.3-26.9-36.6c-9.9-9.2-20.4-17.8-30.9-26.3
				c-2.7-2.2-6.2-4.3-8.8-6.8c0.2-0.3,0.4-0.4,0.7-0.7c6.4-0.8,7.2-6.2,15.6-3c2.1,0.8,4.1-2,2.9-3.8c-6-9.1-16.2-8.8-25.8-9.9
				c-6.5-0.8-8.8-2.7-14.9-7.7c-4.2-3.5-8.3-7.3-12.2-11.2c-1.4-1.4-13.3-12.3-13.3-12.6c0-3.8,11.3-12.2,13.8-14.4
				c11.9-10.5,25.5-19.1,40-25.6c58.4-26,141.2-18.6,174.3,43.2c0.5,0.9,1.9,1.6,2.9,1.2c74.5-28.7,165.3-20.3,236.7,12.1
				c1.4,0.6,2.6,0.3,3.5-0.9c22.5-29.9,61.4-42.8,96.7-29.7C821,341,822.6,337.6,821,335.8z M749.9,339.6
				c-7.8,4.2-14.9,9.6-21.4,15.6c-2.2,2-7.9,10.8-10.8,11.6c0.8-0.2-11.8-7.1-13.7-7.8c-8.8-3.5-17.7-6.6-26.8-9.2
				c-17.8-5.2-36-8.8-54.4-10.9c-29.3-3.3-58.9-2.6-88,1.7c-15.2,2.2-37.5,3.8-51.1,11.8c-0.3,0.2-1,0.5-1.8,0.8
				c-2.7-3.2-4.8-7.5-7.4-10.8c-29.7-37.7-76.1-52.6-122.9-46.5c-38.6,5-81.9,23.3-105.7,55.8c-0.7,1-0.3,2.3,0.4,3.1
				c9.3,11.6,22.4,28.4,36.6,34.9c7.1,3.3,16.7,0.1,23.9,3.7c-5.6,0.6-10.9,3.7-15.5,7.6c-1,0.8-1,2.8,0,3.6
				c22.6,17.6,50.5,36.7,64.2,62.4c7.9,14.8,4.1,32.3,12.6,46.8c4.4,7.5,10.6,13.6,14.7,21.5c5.8,11.1,9.6,23.3,11,35.8
				c1.6,15.1-0.1,30.4-4.3,44.9c-1.5,5.1-5,17.6-8.2,19c-2.1,1-15.1-1.6-19.5-1.1c-6.8,0.8-13.5,2.4-20,4.7
				c-13.3,4.7-25.6,12-36.9,20.6c-15.7,11.9-30.2,26.3-42,42.1c-28.2-29.6-66.1-45.9-106.5-50.1c-6.8-0.7-13.6-1.1-20.3-1.1
				c-2.5,0-5.1,0.5-7.2-0.7c-3.9-2.2-7.7-11-10-14.9C104.6,610,94.6,584,84.3,557.8C61,486.9,54.7,410.4,81.1,339.4
				c16.3-43.7,43.9-82.9,78.5-114c14.3-12.9,29.9-24.3,44.4-36.9c0.8-0.7,1-2.2,0.4-3.1c-9-14.5-10.3-29.9-6.9-46.2
				c3.1-14.7,10.4-39.6,30.2-34.6c19.7,5,31.2,32.9,36.6,50.4c0.6,2,3.6,2.6,4.7,0.6c9.8-18.7,20.5-38.5,36-53.2
				c3.6-3.4,7.5-6.8,12-8.9c6-2.8,7.1-2.3,6.3,5c-0.9,8.9-4.4,17.7-5.6,26.6c-1.2,9-1.5,17.6-4.7,26.3c-4.9,13-13.7,25.5-24.2,34.6
				c-2,1.7,0.2,4.8,2.5,4.3c21.9-5.4,44.1,4.9,63.7,13.6c11,4.9,26.4-1.7,38.4-2.8c18.3-1.7,36.8-2.3,55.2-2.6
				c3.5-0.1,7.7,0.6,11.1-0.1c6.3-1.2,12.2-5.7,18.8-6.8c-4.7,5.9-6.8,14-8,21.2c-0.3,1.6,0.7,3.2,2.5,3.2
				c115.4,2.2,238.6,32.5,328.5,108.7c2.9,2.4,5.7,4.9,8.5,7.4C789.6,327,769,329.2,749.9,339.6z"/>
		</g>
	</g>
	<path class="st1" d="M169,236.6c0,0-55.7,65.6,91.5,158.7C260.5,395.3,132,308.2,169,236.6z"/>
	<path class="st1" d="M713,341.3c0,0-45.3-96.3-197.2-104.7C515.9,236.6,651.7,250.5,713,341.3z"/>
</g>
</svg>
